<?xml version="1.0" encoding="UTF-8"?>
<svg width="780" height="984" xmlns="http://www.w3.org/2000/svg" viewBox="0 0 390 492" preserveAspectRatio="xMidYMax slice"><defs><linearGradient id="ih2j-crg" x1="0" y1="0" x2="1" y2="1"><stop offset="0" stop-color="#FFF8D6"/><stop offset="0.45" stop-color="#FFDF7A"/><stop offset="1" stop-color="#F0A92A"/></linearGradient><radialGradient id="ih2j-crw" cx="0.5" cy="0.5" r="0.5"><stop offset="0" stop-color="#FFE9A8" stop-opacity="0.5"/><stop offset="0.5" stop-color="#FFE9A8" stop-opacity="0.12"/><stop offset="1" stop-color="#FFE9A8" stop-opacity="0"/></radialGradient><linearGradient id="ih2j-fd1" x1="0" y1="0" x2="0" y2="1"><stop offset="0" stop-color="#6A3E6E"/><stop offset="1" stop-color="#3E2448"/></linearGradient><linearGradient id="ih2j-fd2" x1="0" y1="0" x2="0" y2="1"><stop offset="0" stop-color="#A4566A"/><stop offset="1" stop-color="#5E2E4A"/></linearGradient><linearGradient id="ih2j-fd3" x1="0" y1="0" x2="0" y2="1"><stop offset="0" stop-color="#E0A070"/><stop offset="1" stop-color="#B0605A"/></linearGradient><radialGradient id="ih2j-glblFFE3A0" cx="0.5" cy="0.5" r="0.5"><stop offset="0" stop-color="#FFE3A0" stop-opacity="0.85"/><stop offset="0.35" stop-color="#FFE3A0" stop-opacity="0.32"/><stop offset="1" stop-color="#FFE3A0" stop-opacity="0"/></radialGradient><linearGradient id="ih2j-gdvgold" x1="0" y1="0" x2="0" y2="1"><stop offset="0" stop-color="#FFF6D2"/><stop offset="0.4" stop-color="#F2D27A"/><stop offset="0.75" stop-color="#C99A3A"/><stop offset="1" stop-color="#8A6220"/></linearGradient><radialGradient id="ih2j-glfF0564A" cx="0.5" cy="0.5" r="0.5"><stop offset="0" stop-color="#F0564A" stop-opacity="0.85"/><stop offset="0.35" stop-color="#F0564A" stop-opacity="0.32"/><stop offset="1" stop-color="#F0564A" stop-opacity="0"/></radialGradient><linearGradient id="ih2j-fpruby" x1="0" y1="0" x2="0" y2="1"><stop offset="0" stop-color="#FFC2B8"/><stop offset="0.5" stop-color="#F0564A"/><stop offset="1" stop-color="#A51F2C"/></linearGradient><radialGradient id="ih2j-glf3FD6C0" cx="0.5" cy="0.5" r="0.5"><stop offset="0" stop-color="#3FD6C0" stop-opacity="0.85"/><stop offset="0.35" stop-color="#3FD6C0" stop-opacity="0.32"/><stop offset="1" stop-color="#3FD6C0" stop-opacity="0"/></radialGradient><linearGradient id="ih2j-fpteal" x1="0" y1="0" x2="0" y2="1"><stop offset="0" stop-color="#C8FFF4"/><stop offset="0.5" stop-color="#3FD6C0"/><stop offset="1" stop-color="#14887F"/></linearGradient><radialGradient id="ih2j-glfFFB23E" cx="0.5" cy="0.5" r="0.5"><stop offset="0" stop-color="#FFB23E" stop-opacity="0.85"/><stop offset="0.35" stop-color="#FFB23E" stop-opacity="0.32"/><stop offset="1" stop-color="#FFB23E" stop-opacity="0"/></radialGradient><linearGradient id="ih2j-fpamber" x1="0" y1="0" x2="0" y2="1"><stop offset="0" stop-color="#FFE7A6"/><stop offset="0.5" stop-color="#FFB23E"/><stop offset="1" stop-color="#E0761A"/></linearGradient><radialGradient id="ih2j-glf5B8CFF" cx="0.5" cy="0.5" r="0.5"><stop offset="0" stop-color="#5B8CFF" stop-opacity="0.85"/><stop offset="0.35" stop-color="#5B8CFF" stop-opacity="0.32"/><stop offset="1" stop-color="#5B8CFF" stop-opacity="0"/></radialGradient><linearGradient id="ih2j-fplapis" x1="0" y1="0" x2="0" y2="1"><stop offset="0" stop-color="#CFE0FF"/><stop offset="0.5" stop-color="#5B8CFF"/><stop offset="1" stop-color="#2A43B8"/></linearGradient></defs><rect x="-10" y="400" width="410" height="100" fill="#B0605A"/><g transform="translate(0 -38)"><g fill="#FFF1C8"><circle cx="0.2" cy="94.7" r="1" opacity="0.83"/><circle cx="220.1" cy="262.2" r="1.4" opacity="0.75"/><circle cx="310.3" cy="292.3" r="0.5" opacity="0.72"/><circle cx="136.8" cy="58.8" r="0.7" opacity="0.49"/><circle cx="110.1" cy="160" r="0.5" opacity="0.39"/><circle cx="117.6" cy="88" r="0.5" opacity="0.65"/><circle cx="120.3" cy="64.8" r="1.2" opacity="0.38"/><circle cx="81.1" cy="57.8" r="0.7" opacity="0.26"/><circle cx="208.5" cy="326.8" r="0.7" opacity="0.69"/><circle cx="333.9" cy="215.8" r="0.8" opacity="0.26"/><circle cx="219.7" cy="297.2" r="0.9" opacity="0.55"/><circle cx="17.8" cy="191.1" r="1.2" opacity="0.73"/><circle cx="70.5" cy="163" r="0.7" opacity="0.31"/><circle cx="382.1" cy="105.3" r="1" opacity="0.57"/><circle cx="253.7" cy="182.3" r="0.6" opacity="0.78"/><circle cx="387.3" cy="259" r="0.9" opacity="0.31"/><circle cx="61.8" cy="39.8" r="1.2" opacity="0.72"/><circle cx="276.6" cy="213.2" r="0.9" opacity="0.38"/><circle cx="177.9" cy="188.3" r="0.7" opacity="0.42"/><circle cx="109.9" cy="51.2" r="1.4" opacity="0.59"/><circle cx="59.5" cy="296.3" r="1.4" opacity="0.49"/><circle cx="272.8" cy="218.2" r="0.8" opacity="0.71"/><circle cx="376.7" cy="323.4" r="1.1" opacity="0.44"/><circle cx="44.4" cy="111" r="0.6" opacity="0.44"/><circle cx="374.8" cy="5" r="1.4" opacity="0.36"/><circle cx="331.6" cy="158" r="0.4" opacity="0.4"/><circle cx="266.9" cy="4.7" r="0.9" opacity="0.3"/><circle cx="261.4" cy="133.4" r="0.5" opacity="0.34"/><circle cx="366.1" cy="38.4" r="0.7" opacity="0.28"/><circle cx="25.5" cy="133.1" r="0.4" opacity="0.39"/><circle cx="285.6" cy="98.7" r="0.5" opacity="0.32"/><circle cx="270.4" cy="237.1" r="0.4" opacity="0.32"/><circle cx="154.6" cy="1.6" r="1.3" opacity="0.3"/><circle cx="183.7" cy="305.2" r="0.7" opacity="0.53"/><circle cx="188.6" cy="97.2" r="1.4" opacity="0.43"/><circle cx="69" cy="62.9" r="0.4" opacity="0.47"/><circle cx="369.8" cy="248.3" r="1.3" opacity="0.63"/><circle cx="344.7" cy="256.2" r="0.6" opacity="0.61"/><circle cx="366.6" cy="193" r="0.5" opacity="0.67"/><circle cx="383.3" cy="9.6" r="0.5" opacity="0.64"/><circle cx="239.5" cy="5" r="0.9" opacity="0.77"/><circle cx="307.2" cy="265.8" r="1.3" opacity="0.87"/><circle cx="269.8" cy="280.4" r="0.6" opacity="0.77"/><circle cx="314.7" cy="72.1" r="0.9" opacity="0.26"/><circle cx="367.6" cy="168.9" r="0.7" opacity="0.69"/><circle cx="7.8" cy="163.3" r="1.4" opacity="0.7"/><circle cx="20.9" cy="185" r="1.2" opacity="0.42"/><circle cx="295.6" cy="77.3" r="1.1" opacity="0.82"/><circle cx="321.7" cy="167.1" r="1" opacity="0.33"/><circle cx="365.1" cy="284.6" r="1.1" opacity="0.87"/><circle cx="158.3" cy="78.9" r="0.5" opacity="0.33"/><circle cx="245.7" cy="74.9" r="1.3" opacity="0.52"/><circle cx="201.4" cy="27.7" r="0.7" opacity="0.4"/><circle cx="281.7" cy="321.5" r="1.2" opacity="0.31"/><circle cx="173.7" cy="168.9" r="1.1" opacity="0.38"/><circle cx="319.8" cy="24.5" r="0.5" opacity="0.32"/><circle cx="368.8" cy="265.1" r="0.4" opacity="0.88"/><circle cx="223.1" cy="246.8" r="0.9" opacity="0.3"/><circle cx="104.8" cy="253.9" r="0.7" opacity="0.46"/><circle cx="225.6" cy="32.8" r="1.3" opacity="0.53"/><circle cx="208.6" cy="231.9" r="0.8" opacity="0.78"/><circle cx="1.9" cy="107.5" r="1.3" opacity="0.69"/><circle cx="281.1" cy="273.9" r="0.4" opacity="0.29"/><circle cx="281.3" cy="271.3" r="0.5" opacity="0.46"/><circle cx="388.9" cy="288.9" r="1.3" opacity="0.7"/><circle cx="258.2" cy="68.8" r="1.4" opacity="0.35"/><circle cx="51.6" cy="218.8" r="0.8" opacity="0.54"/><circle cx="41.7" cy="163.6" r="1.4" opacity="0.7"/><circle cx="218.7" cy="317" r="1" opacity="0.83"/><circle cx="367.6" cy="126.6" r="1" opacity="0.75"/></g><g transform="translate(300 110) rotate(-35) scale(3)"><circle cx="-2" r="26" fill="url(#ih2j-crw)"/><path d="M5.3 -8.5A10 10 0 1 0 5.3 8.5A8.5 8.5 0 1 1 5.3 -8.5Z" fill="url(#ih2j-crg)"/><path d="M5.3 -8.5A10 10 0 1 0 5.3 8.5A8.5 8.5 0 1 1 5.3 -8.5Z" fill="none" stroke="#FFF6D0" stroke-width=".5" opacity=".7"/><circle cx="-6.2" cy="-1.5" r="1.2" fill="#E8A83A" opacity=".35"/><circle cx="-4.4" cy="4.2" r=".8" fill="#E8A83A" opacity=".3"/><circle cx="-7.2" cy="3" r=".6" fill="#E8A83A" opacity=".3"/></g><path d="M0 392C60 368 120 376 180 364C240 352 300 372 390 358V492H0Z" fill="url(#ih2j-fd1)"/><g fill="#2C1834"><rect x="228" y="352" width="46" height="14"/><path d="M240.9 352C235.9 345.2 237.5 339.2 245.3 335.4C248.9 334 250.5 333 251 332C251.5 333 253.1 334 256.7 335.4C264.5 339.2 266.1 345.2 261.1 352Z"/><rect x="280" y="318" width="4" height="48"/><path d="M279 318L282 310L285 318Z"/><rect x="222" y="330" width="3.4" height="36"/><path d="M221 330L223.7 324L226.4 330Z"/></g><path d="M0 420C80 396 150 410 220 398C290 386 340 404 390 396V492H0Z" fill="url(#ih2j-fd2)"/><path d="M31.4 432Q37 377 42.8 322L45.2 322Q40 377 36.6 432Z" fill="#2A1428"/><path d="M44 322Q19.8 308.8 -2.2 323.1Q22 317.6 44 324Z" fill="#2A1428"/><path d="M44 322Q23.4 310.8 4.7 334Q25.3 317.6 44 324Z" fill="#2A1428"/><path d="M44 322Q33.8 312.8 24.6 339.1Q34.8 317.6 44 324Z" fill="#2A1428"/><path d="M44 322Q68.2 308.8 90.2 322Q66 317.6 44 324Z" fill="#2A1428"/><path d="M44 322Q65.8 310.1 85.6 333.4Q63.8 317.6 44 324Z" fill="#2A1428"/><path d="M44 322Q53.3 312.8 61.8 339.8Q52.5 317.6 44 324Z" fill="#2A1428"/><path d="M44 322Q44 314.7 44 339.6Q44 317.6 44 324Z" fill="#2A1428"/><path d="M59.4 430Q60.2 392 54.8 354L57.2 354Q63.2 392 64.6 430Z" fill="#2A1428"/><path d="M56 354Q39.3 344.9 24.1 354.8Q40.8 351 56 356Z" fill="#2A1428"/><path d="M56 354Q41.8 346.2 28.9 362.3Q43.1 351 56 356Z" fill="#2A1428"/><path d="M56 354Q49 347.6 42.6 365.8Q49.6 351 56 356Z" fill="#2A1428"/><path d="M56 354Q72.7 344.9 87.9 354Q71.2 351 56 356Z" fill="#2A1428"/><path d="M56 354Q71 345.8 84.7 361.9Q69.7 351 56 356Z" fill="#2A1428"/><path d="M56 354Q62.4 347.6 68.3 366.3Q61.9 351 56 356Z" fill="#2A1428"/><path d="M56 354Q56 349 56 366.2Q56 351 56 356Z" fill="#2A1428"/><path d="M357.4 426Q357 378 348.8 330L351.2 330Q360 378 362.6 426Z" fill="#2A1428"/><path d="M350 330Q328.9 318.5 309.7 331Q330.8 326.2 350 332Z" fill="#2A1428"/><path d="M350 330Q332 320.2 315.7 340.5Q333.7 326.2 350 332Z" fill="#2A1428"/><path d="M350 330Q341.1 321.9 333.1 344.9Q341.9 326.2 350 332Z" fill="#2A1428"/><path d="M350 330Q371.1 318.5 390.3 330Q369.2 326.2 350 332Z" fill="#2A1428"/><path d="M350 330Q369 319.6 386.3 340Q367.3 326.2 350 332Z" fill="#2A1428"/><path d="M350 330Q358.1 321.9 365.5 345.6Q357.4 326.2 350 332Z" fill="#2A1428"/><path d="M350 330Q350 323.7 350 345.4Q350 326.2 350 332Z" fill="#2A1428"/><path d="M0 452C90 432 170 446 250 436C320 428 360 440 390 436V492H0Z" fill="url(#ih2j-fd3)"/><path d="M40 380Q120 420 200 396Q280 372 350 392" fill="none" stroke="#E8C067" stroke-width=".7" opacity=".7"/><circle cx="40" cy="382" r="5" fill="url(#ih2j-glblFFE3A0)"/><circle cx="40" cy="382" r="1.6" fill="#FFD27A"/><circle cx="62.9" cy="392.1" r="5" fill="url(#ih2j-glblFFE3A0)"/><circle cx="62.9" cy="392.1" r="1.6" fill="#FF8F7A"/><circle cx="85.7" cy="399.6" r="5" fill="url(#ih2j-glblFFE3A0)"/><circle cx="85.7" cy="399.6" r="1.6" fill="#8FE3FF"/><circle cx="108.6" cy="404.5" r="5" fill="url(#ih2j-glblFFE3A0)"/><circle cx="108.6" cy="404.5" r="1.6" fill="#B6FF9E"/><circle cx="131.4" cy="406.8" r="5" fill="url(#ih2j-glblFFE3A0)"/><circle cx="131.4" cy="406.8" r="1.6" fill="#FFD27A"/><circle cx="154.3" cy="406.5" r="5" fill="url(#ih2j-glblFFE3A0)"/><circle cx="154.3" cy="406.5" r="1.6" fill="#FF8F7A"/><circle cx="177.1" cy="403.6" r="5" fill="url(#ih2j-glblFFE3A0)"/><circle cx="177.1" cy="403.6" r="1.6" fill="#8FE3FF"/><circle cx="200" cy="398" r="5" fill="url(#ih2j-glblFFE3A0)"/><circle cx="200" cy="398" r="1.6" fill="#B6FF9E"/><circle cx="222.7" cy="392" r="5" fill="url(#ih2j-glblFFE3A0)"/><circle cx="222.7" cy="392" r="1.6" fill="#FFD27A"/><circle cx="244.9" cy="387.9" r="5" fill="url(#ih2j-glblFFE3A0)"/><circle cx="244.9" cy="387.9" r="1.6" fill="#FF8F7A"/><circle cx="266.7" cy="385.5" r="5" fill="url(#ih2j-glblFFE3A0)"/><circle cx="266.7" cy="385.5" r="1.6" fill="#8FE3FF"/><circle cx="288.2" cy="384.9" r="5" fill="url(#ih2j-glblFFE3A0)"/><circle cx="288.2" cy="384.9" r="1.6" fill="#B6FF9E"/><circle cx="309.2" cy="386.2" r="5" fill="url(#ih2j-glblFFE3A0)"/><circle cx="309.2" cy="386.2" r="1.6" fill="#FFD27A"/><circle cx="329.8" cy="389.2" r="5" fill="url(#ih2j-glblFFE3A0)"/><circle cx="329.8" cy="389.2" r="1.6" fill="#FF8F7A"/><circle cx="350" cy="394" r="5" fill="url(#ih2j-glblFFE3A0)"/><circle cx="350" cy="394" r="1.6" fill="#8FE3FF"/><g transform="translate(320 448) scale(1.25)"><circle cy="4" r="34" fill="url(#ih2j-glfF0564A)"/><circle cy="-18" r="2.2" fill="none" stroke="url(#ih2j-gdvgold)" stroke-width="1.1"/><path d="M-6 -9Q0 -19 6 -9Z" fill="url(#ih2j-gdvgold)"/><path d="M-8.5 -9H8.5L7 -6H-7Z" fill="url(#ih2j-gdvgold)"/><path d="M-7 -6L-9.5 3L-7 12H7L9.5 3L7 -6Z" fill="url(#ih2j-fpruby)"/><path d="M-7 -6L-9.5 3L-7 12M7 -6L9.5 3L7 12M-2.4 -6V12M2.4 -6V12M-9.5 3H9.5" fill="none" stroke="url(#ih2j-gdvgold)" stroke-width="1"/><path d="M0.9 0.8L1.3 1.7L2.2 2.1L1.8 3L2.2 3.9L1.3 4.3L0.9 5.2L0 4.8L-0.9 5.2L-1.3 4.3L-2.2 3.9L-1.8 3L-2.2 2.1L-1.3 1.7L-0.9 0.8L0 1.2Z" fill="#FFF6D6" opacity=".9"/><path d="M-7 12H7L5 15H-5Z" fill="url(#ih2j-gdvgold)"/><path d="M-5 15Q0 22 5 15Z" fill="url(#ih2j-gdvgold)"/><circle cy="22" r="1.3" fill="url(#ih2j-gdvgold)"/></g><g transform="translate(350 462) scale(0.85)"><circle cy="4" r="34" fill="url(#ih2j-glf3FD6C0)"/><circle cy="-18" r="2.2" fill="none" stroke="url(#ih2j-gdvgold)" stroke-width="1.1"/><path d="M-6 -9Q0 -19 6 -9Z" fill="url(#ih2j-gdvgold)"/><path d="M-8.5 -9H8.5L7 -6H-7Z" fill="url(#ih2j-gdvgold)"/><path d="M-7 -6L-9.5 3L-7 12H7L9.5 3L7 -6Z" fill="url(#ih2j-fpteal)"/><path d="M-7 -6L-9.5 3L-7 12M7 -6L9.5 3L7 12M-2.4 -6V12M2.4 -6V12M-9.5 3H9.5" fill="none" stroke="url(#ih2j-gdvgold)" stroke-width="1"/><path d="M0.9 0.8L1.3 1.7L2.2 2.1L1.8 3L2.2 3.9L1.3 4.3L0.9 5.2L0 4.8L-0.9 5.2L-1.3 4.3L-2.2 3.9L-1.8 3L-2.2 2.1L-1.3 1.7L-0.9 0.8L0 1.2Z" fill="#FFF6D6" opacity=".9"/><path d="M-7 12H7L5 15H-5Z" fill="url(#ih2j-gdvgold)"/><path d="M-5 15Q0 22 5 15Z" fill="url(#ih2j-gdvgold)"/><circle cy="22" r="1.3" fill="url(#ih2j-gdvgold)"/></g><g transform="translate(110 462) scale(0.9)"><circle cy="4" r="34" fill="url(#ih2j-glfFFB23E)"/><circle cy="-18" r="2.2" fill="none" stroke="url(#ih2j-gdvgold)" stroke-width="1.1"/><path d="M-6 -9Q0 -19 6 -9Z" fill="url(#ih2j-gdvgold)"/><path d="M-8.5 -9H8.5L7 -6H-7Z" fill="url(#ih2j-gdvgold)"/><path d="M-7 -6L-9.5 3L-7 12H7L9.5 3L7 -6Z" fill="url(#ih2j-fpamber)"/><path d="M-7 -6L-9.5 3L-7 12M7 -6L9.5 3L7 12M-2.4 -6V12M2.4 -6V12M-9.5 3H9.5" fill="none" stroke="url(#ih2j-gdvgold)" stroke-width="1"/><path d="M0.9 0.8L1.3 1.7L2.2 2.1L1.8 3L2.2 3.9L1.3 4.3L0.9 5.2L0 4.8L-0.9 5.2L-1.3 4.3L-2.2 3.9L-1.8 3L-2.2 2.1L-1.3 1.7L-0.9 0.8L0 1.2Z" fill="#FFF6D6" opacity=".9"/><path d="M-7 12H7L5 15H-5Z" fill="url(#ih2j-gdvgold)"/><path d="M-5 15Q0 22 5 15Z" fill="url(#ih2j-gdvgold)"/><circle cy="22" r="1.3" fill="url(#ih2j-gdvgold)"/></g><g transform="translate(140 472) scale(0.6)"><circle cy="4" r="34" fill="url(#ih2j-glf5B8CFF)"/><circle cy="-18" r="2.2" fill="none" stroke="url(#ih2j-gdvgold)" stroke-width="1.1"/><path d="M-6 -9Q0 -19 6 -9Z" fill="url(#ih2j-gdvgold)"/><path d="M-8.5 -9H8.5L7 -6H-7Z" fill="url(#ih2j-gdvgold)"/><path d="M-7 -6L-9.5 3L-7 12H7L9.5 3L7 -6Z" fill="url(#ih2j-fplapis)"/><path d="M-7 -6L-9.5 3L-7 12M7 -6L9.5 3L7 12M-2.4 -6V12M2.4 -6V12M-9.5 3H9.5" fill="none" stroke="url(#ih2j-gdvgold)" stroke-width="1"/><path d="M0.9 0.8L1.3 1.7L2.2 2.1L1.8 3L2.2 3.9L1.3 4.3L0.9 5.2L0 4.8L-0.9 5.2L-1.3 4.3L-2.2 3.9L-1.8 3L-2.2 2.1L-1.3 1.7L-0.9 0.8L0 1.2Z" fill="#FFF6D6" opacity=".9"/><path d="M-7 12H7L5 15H-5Z" fill="url(#ih2j-gdvgold)"/><path d="M-5 15Q0 22 5 15Z" fill="url(#ih2j-gdvgold)"/><circle cy="22" r="1.3" fill="url(#ih2j-gdvgold)"/></g></g></svg>