<?xml version="1.0" encoding="UTF-8"?>
<svg width="780" height="984" xmlns="http://www.w3.org/2000/svg" viewBox="0 0 390 492" preserveAspectRatio="xMidYMax slice"><defs><pattern id="ihd-mkp" width="120" height="120" patternUnits="userSpaceOnUse"><g fill="none" stroke="#E8C067" stroke-width="0.7"><path d="M9.2 -22.2L13 -13L22.2 -9.2L18.4 0L22.2 9.2L13 13L9.2 22.2L0 18.4L-9.2 22.2L-13 13L-22.2 9.2L-18.4 0L-22.2 -9.2L-13 -13L-9.2 -22.2L0 -18.4Z"/><path d="M5 -12L7 -7L12 -5L10 0L12 5L7 7L5 12L0 10L-5 12L-7 7L-12 5L-10 0L-12 -5L-7 -7L-5 -12L0 -10Z"/><path d="M129.2 -22.2L133 -13L142.2 -9.2L138.4 0L142.2 9.2L133 13L129.2 22.2L120 18.4L110.8 22.2L107 13L97.8 9.2L101.6 0L97.8 -9.2L107 -13L110.8 -22.2L120 -18.4Z"/><path d="M125 -12L127 -7L132 -5L130 0L132 5L127 7L125 12L120 10L115 12L113 7L108 5L110 0L108 -5L113 -7L115 -12L120 -10Z"/><path d="M9.2 97.8L13 107L22.2 110.8L18.4 120L22.2 129.2L13 133L9.2 142.2L0 138.4L-9.2 142.2L-13 133L-22.2 129.2L-18.4 120L-22.2 110.8L-13 107L-9.2 97.8L0 101.6Z"/><path d="M5 108L7 113L12 115L10 120L12 125L7 127L5 132L0 130L-5 132L-7 127L-12 125L-10 120L-12 115L-7 113L-5 108L0 110Z"/><path d="M129.2 97.8L133 107L142.2 110.8L138.4 120L142.2 129.2L133 133L129.2 142.2L120 138.4L110.8 142.2L107 133L97.8 129.2L101.6 120L97.8 110.8L107 107L110.8 97.8L120 101.6Z"/><path d="M125 108L127 113L132 115L130 120L132 125L127 127L125 132L120 130L115 132L113 127L108 125L110 120L108 115L113 113L115 108L120 110Z"/><path d="M69.2 37.8L73 47L82.2 50.8L78.4 60L82.2 69.2L73 73L69.2 82.2L60 78.4L50.8 82.2L47 73L37.8 69.2L41.6 60L37.8 50.8L47 47L50.8 37.8L60 41.6Z"/><path d="M65 48L67 53L72 55L70 60L72 65L67 67L65 72L60 70L55 72L53 67L48 65L50 60L48 55L53 53L55 48L60 50Z"/><path d="M60 -12L63.5 -3.5L72 0L63.5 3.5L60 12L56.5 3.5L48 0L56.5 -3.5Z"/><path d="M0 48L3.5 56.5L12 60L3.5 63.5L0 72L-3.5 63.5L-12 60L-3.5 56.5Z"/><path d="M120 48L123.5 56.5L132 60L123.5 63.5L120 72L116.5 63.5L108 60L116.5 56.5Z"/><path d="M60 108L63.5 116.5L72 120L63.5 123.5L60 132L56.5 123.5L48 120L56.5 116.5Z"/><path d="M24 0L36 24L60 36M96 0L84 24L60 36M0 24L24 36L36 60M120 24L96 36L84 60M24 120L36 96L60 84M96 120L84 96L60 84M0 96L24 84L36 60M120 96L96 84L84 60" opacity="0.7"/></g></pattern><linearGradient id="ihd-mkmg" x1="0" y1="0" x2="0" y2="1"><stop offset="0" stop-color="#FFFFFF" stop-opacity="0.8"/><stop offset="0.18" stop-color="#FFFFFF" stop-opacity="0.5"/><stop offset="0.55" stop-color="#FFFFFF" stop-opacity="0"/></linearGradient><mask id="ihd-mkm"><rect width="390" height="492" fill="url(#ihd-mkmg)"/></mask><linearGradient id="ihd-crg" x1="0" y1="0" x2="1" y2="1"><stop offset="0" stop-color="#FFF8D6"/><stop offset="0.45" stop-color="#FFDF7A"/><stop offset="1" stop-color="#F0A92A"/></linearGradient><radialGradient id="ihd-crw" cx="0.5" cy="0.5" r="0.5"><stop offset="0" stop-color="#FFE9A8" stop-opacity="0.5"/><stop offset="0.5" stop-color="#FFE9A8" stop-opacity="0.12"/><stop offset="1" stop-color="#FFE9A8" stop-opacity="0"/></radialGradient><radialGradient id="ihd-glctEFFFF4" cx="0.5" cy="0.5" r="0.5"><stop offset="0" stop-color="#EFFFF4" stop-opacity="0.85"/><stop offset="0.35" stop-color="#EFFFF4" stop-opacity="0.32"/><stop offset="1" stop-color="#EFFFF4" stop-opacity="0"/></radialGradient><linearGradient id="ihd-gdvgold" x1="0" y1="0" x2="0" y2="1"><stop offset="0" stop-color="#FFF6D2"/><stop offset="0.4" stop-color="#F2D27A"/><stop offset="0.75" stop-color="#C99A3A"/><stop offset="1" stop-color="#8A6220"/></linearGradient><linearGradient id="ihd-arlu" x1="0" y1="0" x2="0" y2="1"><stop offset="0" stop-color="#FFE9B8"/><stop offset="1" stop-color="#B87E2A"/></linearGradient><linearGradient id="ihd-arll" x1="0" y1="0" x2="0" y2="1"><stop offset="0" stop-color="#FFE6A8"/><stop offset="1" stop-color="#C98A2E"/></linearGradient><radialGradient id="ihd-mtf" cx="0.5" cy="0.3" r="0.7"><stop offset="0" stop-color="#FFFFFF"/><stop offset="0.55" stop-color="#EDE8DC"/><stop offset="1" stop-color="#B9B2A2"/></radialGradient><radialGradient id="ihd-glmtFFF4D6" cx="0.5" cy="0.5" r="0.5"><stop offset="0" stop-color="#FFF4D6" stop-opacity="0.85"/><stop offset="0.35" stop-color="#FFF4D6" stop-opacity="0.32"/><stop offset="1" stop-color="#FFF4D6" stop-opacity="0"/></radialGradient><linearGradient id="ihd-kbf" x1="0" y1="0" x2="1" y2="1"><stop offset="0" stop-color="#2A2A30"/><stop offset="0.55" stop-color="#16161A"/><stop offset="1" stop-color="#0C0C0F"/></linearGradient><linearGradient id="ihd-kbs" x1="1" y1="0" x2="0" y2="0"><stop offset="0" stop-color="#101013"/><stop offset="1" stop-color="#060608"/></linearGradient><linearGradient id="ihd-dvw" x1="0" y1="0" x2="0" y2="1"><stop offset="0" stop-color="#FFFFFF"/><stop offset="1" stop-color="#DCE6F2"/></linearGradient><radialGradient id="ihd-dvb" cx="0.4" cy="0.35" r="0.8"><stop offset="0" stop-color="#FFFFFF"/><stop offset="1" stop-color="#D6E0EE"/></radialGradient></defs><rect x="-10" y="400" width="410" height="100" fill="#D9D2C2"/><g transform="translate(0 -38)"><rect width="390" height="300" fill="url(#ihd-mkp)" mask="url(#ihd-mkm)" opacity=".3"/><g fill="#FFF6DA"><circle cx="0" cy="147.5" r="0.7" opacity="0.28"/><circle cx="335.6" cy="134.8" r="0.9" opacity="0.55"/><circle cx="184.2" cy="92.9" r="0.6" opacity="0.71"/><circle cx="54.8" cy="125.5" r="1" opacity="0.79"/><circle cx="149.2" cy="27.9" r="0.6" opacity="0.73"/><circle cx="231" cy="183" r="0.9" opacity="0.4"/><circle cx="120.1" cy="262.8" r="0.4" opacity="0.38"/><circle cx="224.6" cy="235.3" r="0.4" opacity="0.5"/><circle cx="345.9" cy="172.3" r="0.5" opacity="0.65"/><circle cx="374" cy="105.8" r="1.3" opacity="0.26"/><circle cx="279.8" cy="266.7" r="1.3" opacity="0.44"/><circle cx="65" cy="263.8" r="1.3" opacity="0.73"/><circle cx="389.9" cy="264.2" r="0.8" opacity="0.42"/><circle cx="240.1" cy="7.9" r="1.3" opacity="0.79"/><circle cx="137.2" cy="288.5" r="0.4" opacity="0.68"/><circle cx="371" cy="181.4" r="1.1" opacity="0.58"/><circle cx="332.7" cy="143.1" r="1.3" opacity="0.9"/><circle cx="165.9" cy="267.7" r="0.9" opacity="0.4"/><circle cx="18.7" cy="17.2" r="1.2" opacity="0.32"/><circle cx="136.8" cy="181.8" r="0.7" opacity="0.56"/><circle cx="41.3" cy="125.1" r="0.5" opacity="0.62"/><circle cx="214.8" cy="305.2" r="0.5" opacity="0.89"/><circle cx="387.7" cy="255.5" r="0.9" opacity="0.49"/><circle cx="335.9" cy="213.2" r="0.9" opacity="0.45"/><circle cx="207.8" cy="84.7" r="1.4" opacity="0.62"/><circle cx="355" cy="48.5" r="0.5" opacity="0.88"/><circle cx="269.5" cy="95.1" r="1.2" opacity="0.49"/><circle cx="342.8" cy="159.5" r="0.9" opacity="0.4"/><circle cx="39.2" cy="263.4" r="1.3" opacity="0.42"/><circle cx="295.4" cy="112.3" r="1.3" opacity="0.53"/><circle cx="0.3" cy="6.8" r="0.4" opacity="0.61"/><circle cx="115.3" cy="266.6" r="0.7" opacity="0.67"/><circle cx="386" cy="162.7" r="1.1" opacity="0.36"/><circle cx="254.9" cy="163.3" r="0.6" opacity="0.42"/><circle cx="193.9" cy="205.5" r="0.8" opacity="0.45"/><circle cx="191.6" cy="168.1" r="0.5" opacity="0.66"/><circle cx="318.4" cy="163.8" r="0.9" opacity="0.39"/><circle cx="301.6" cy="123.3" r="0.5" opacity="0.62"/><circle cx="150.7" cy="65.1" r="0.9" opacity="0.85"/><circle cx="153.6" cy="54.1" r="1.2" opacity="0.79"/><circle cx="283.2" cy="79.4" r="0.6" opacity="0.4"/><circle cx="121.7" cy="303.1" r="1.1" opacity="0.62"/><circle cx="164.7" cy="169.4" r="0.8" opacity="0.73"/><circle cx="5.4" cy="258.8" r="1.2" opacity="0.26"/><circle cx="305.6" cy="160.4" r="1" opacity="0.26"/><circle cx="329.5" cy="321.8" r="1.3" opacity="0.41"/><circle cx="65.6" cy="121.4" r="0.8" opacity="0.9"/><circle cx="293" cy="154.9" r="0.5" opacity="0.62"/><circle cx="235.7" cy="327.7" r="0.7" opacity="0.31"/><circle cx="181.4" cy="316.8" r="1.2" opacity="0.3"/><circle cx="225.7" cy="239" r="1.3" opacity="0.57"/><circle cx="141.9" cy="60.2" r="1.3" opacity="0.68"/><circle cx="53.7" cy="182.9" r="0.7" opacity="0.67"/><circle cx="327.8" cy="9" r="0.9" opacity="0.82"/><circle cx="315.1" cy="254.7" r="0.5" opacity="0.39"/><circle cx="291.1" cy="255.7" r="0.5" opacity="0.72"/><circle cx="330.6" cy="124.9" r="0.7" opacity="0.58"/><circle cx="76.1" cy="27.4" r="0.9" opacity="0.76"/><circle cx="383.5" cy="175.3" r="1.4" opacity="0.82"/><circle cx="144.6" cy="299.1" r="0.8" opacity="0.68"/><circle cx="271.7" cy="276.2" r="0.5" opacity="0.82"/><circle cx="6.5" cy="107.8" r="1.4" opacity="0.7"/><circle cx="364.8" cy="257.4" r="0.4" opacity="0.26"/><circle cx="197.7" cy="0.2" r="0.9" opacity="0.64"/><circle cx="197.9" cy="160.4" r="0.6" opacity="0.38"/><circle cx="311.3" cy="38.2" r="0.4" opacity="0.83"/><circle cx="157.6" cy="305.3" r="0.7" opacity="0.48"/><circle cx="347.8" cy="91.4" r="0.8" opacity="0.52"/><circle cx="112.5" cy="317.2" r="1" opacity="0.33"/><circle cx="212.8" cy="205.4" r="1" opacity="0.32"/><circle cx="52.1" cy="41.1" r="0.5" opacity="0.78"/><circle cx="267" cy="5.6" r="0.9" opacity="0.5"/><circle cx="238.3" cy="312.1" r="0.5" opacity="0.73"/><circle cx="338.2" cy="273.5" r="0.9" opacity="0.33"/><circle cx="161.3" cy="324" r="1" opacity="0.73"/><circle cx="256.9" cy="93.2" r="0.7" opacity="0.88"/><circle cx="242.1" cy="191.5" r="0.9" opacity="0.58"/><circle cx="272.3" cy="96.3" r="0.8" opacity="0.76"/><circle cx="36.3" cy="154.4" r="1" opacity="0.73"/><circle cx="223.7" cy="256.9" r="0.7" opacity="0.55"/></g><g transform="translate(322 90) rotate(-32) scale(2)"><circle cx="-2" r="26" fill="url(#ihd-crw)"/><path d="M5.3 -8.5A10 10 0 1 0 5.3 8.5A8.5 8.5 0 1 1 5.3 -8.5Z" fill="url(#ihd-crg)"/><path d="M5.3 -8.5A10 10 0 1 0 5.3 8.5A8.5 8.5 0 1 1 5.3 -8.5Z" fill="none" stroke="#FFF6D0" stroke-width=".5" opacity=".7"/><circle cx="-6.2" cy="-1.5" r="1.2" fill="#E8A83A" opacity=".35"/><circle cx="-4.4" cy="4.2" r=".8" fill="#E8A83A" opacity=".3"/><circle cx="-7.2" cy="3" r=".6" fill="#E8A83A" opacity=".3"/></g><path d="M0 356C40 338 70 350 104 338C140 326 172 344 212 336C252 328 292 346 330 334C360 326 380 336 390 332V430H0Z" fill="#101016"/><path d="M298 392V344H316V284H325V263L346 242L367 263V284H376V344H394V392Z" fill="#15151B"/><circle cx="346" cy="296" r="18.6" fill="url(#ihd-glctEFFFF4)"/><circle cx="346" cy="296" r="13.2" fill="#F4FFF6" opacity=".85"/><circle cx="346" cy="296" r="13.2" fill="none" stroke="#3FA66A" stroke-width=".8"/><path d="M346 296v-9M346 296h6.6" stroke="#2A5A3E" stroke-width=".8"/><rect x="307" y="380" width="9" height="4.5" fill="#FFE3A0" opacity=".5"/><rect x="328" y="380" width="9" height="4.5" fill="#FFE3A0" opacity=".5"/><rect x="349" y="380" width="9" height="4.5" fill="#FFE3A0" opacity=".5"/><rect x="370" y="380" width="9" height="4.5" fill="#FFE3A0" opacity=".5"/><rect x="307" y="365" width="9" height="4.5" fill="#FFE3A0" opacity=".5"/><rect x="328" y="365" width="9" height="4.5" fill="#FFE3A0" opacity=".5"/><rect x="349" y="365" width="9" height="4.5" fill="#FFE3A0" opacity=".5"/><rect x="370" y="365" width="9" height="4.5" fill="#FFE3A0" opacity=".5"/><g transform="translate(346 243) scale(0.6)"><path d="M-.6 0V-14h1.2V0Z" fill="url(#ihd-gdvgold)"/><circle cy="-3" r="2.1" fill="url(#ihd-gdvgold)"/><circle cy="-7.6" r="1.7" fill="url(#ihd-gdvgold)"/><ellipse cy="-11" rx="1.2" ry="1.5" fill="url(#ihd-gdvgold)"/><path d="M-3.6 -17.4A4 4 0 0 0 3.6 -17.4A3.2 3.2 0 0 1 -3.6 -17.4Z" fill="url(#ihd-gdvgold)" transform="translate(0 -1.2)"/></g><rect x="-10" y="378" width="410" height="20" fill="#17171D"/><path d="M-7.1 398V388.7A12.1 12.1 0 0 1 0.3 383A12.1 12.1 0 0 1 7.6 388.7V398Z" fill="url(#ihd-arlu)"/><path d="M13.4 398V388.7A12.1 12.1 0 0 1 20.8 383A12.1 12.1 0 0 1 28.1 388.7V398Z" fill="url(#ihd-arlu)"/><path d="M33.9 398V388.7A12.1 12.1 0 0 1 41.3 383A12.1 12.1 0 0 1 48.6 388.7V398Z" fill="url(#ihd-arlu)"/><path d="M54.4 398V388.7A12.1 12.1 0 0 1 61.8 383A12.1 12.1 0 0 1 69.1 388.7V398Z" fill="url(#ihd-arlu)"/><path d="M74.9 398V388.7A12.1 12.1 0 0 1 82.3 383A12.1 12.1 0 0 1 89.6 388.7V398Z" fill="url(#ihd-arlu)"/><path d="M95.4 398V388.7A12.1 12.1 0 0 1 102.8 383A12.1 12.1 0 0 1 110.1 388.7V398Z" fill="url(#ihd-arlu)"/><path d="M115.9 398V388.7A12.1 12.1 0 0 1 123.3 383A12.1 12.1 0 0 1 130.6 388.7V398Z" fill="url(#ihd-arlu)"/><path d="M136.4 398V388.7A12.1 12.1 0 0 1 143.8 383A12.1 12.1 0 0 1 151.1 388.7V398Z" fill="url(#ihd-arlu)"/><path d="M156.9 398V388.7A12.1 12.1 0 0 1 164.3 383A12.1 12.1 0 0 1 171.6 388.7V398Z" fill="url(#ihd-arlu)"/><path d="M177.4 398V388.7A12.1 12.1 0 0 1 184.8 383A12.1 12.1 0 0 1 192.1 388.7V398Z" fill="url(#ihd-arlu)"/><path d="M197.9 398V388.7A12.1 12.1 0 0 1 205.3 383A12.1 12.1 0 0 1 212.6 388.7V398Z" fill="url(#ihd-arlu)"/><path d="M218.4 398V388.7A12.1 12.1 0 0 1 225.8 383A12.1 12.1 0 0 1 233.1 388.7V398Z" fill="url(#ihd-arlu)"/><path d="M238.9 398V388.7A12.1 12.1 0 0 1 246.3 383A12.1 12.1 0 0 1 253.6 388.7V398Z" fill="url(#ihd-arlu)"/><path d="M259.4 398V388.7A12.1 12.1 0 0 1 266.8 383A12.1 12.1 0 0 1 274.1 388.7V398Z" fill="url(#ihd-arlu)"/><path d="M279.9 398V388.7A12.1 12.1 0 0 1 287.3 383A12.1 12.1 0 0 1 294.6 388.7V398Z" fill="url(#ihd-arlu)"/><path d="M300.4 398V388.7A12.1 12.1 0 0 1 307.8 383A12.1 12.1 0 0 1 315.1 388.7V398Z" fill="url(#ihd-arlu)"/><path d="M320.9 398V388.7A12.1 12.1 0 0 1 328.3 383A12.1 12.1 0 0 1 335.6 388.7V398Z" fill="url(#ihd-arlu)"/><path d="M341.4 398V388.7A12.1 12.1 0 0 1 348.8 383A12.1 12.1 0 0 1 356.1 388.7V398Z" fill="url(#ihd-arlu)"/><path d="M361.9 398V388.7A12.1 12.1 0 0 1 369.3 383A12.1 12.1 0 0 1 376.6 388.7V398Z" fill="url(#ihd-arlu)"/><path d="M382.4 398V388.7A12.1 12.1 0 0 1 389.8 383A12.1 12.1 0 0 1 397.1 388.7V398Z" fill="url(#ihd-arlu)"/><g><path d="M23.9 424V363.5H36.1V424Z" fill="#1D1D24"/><path d="M24.8 363.5V319.8H35.2V363.5Z" fill="#1D1D24"/><path d="M25.7 319.8V289.6H34.3V319.8Z" fill="#1D1D24"/><path d="M21.1 363.5h17.7l-2.1 5h-13.5Z" fill="#1D1D24"/><path d="M21.1 363.5h17.7" stroke="rgba(255,230,170,.25)" stroke-width=".8"/><path d="M21.6 361.9h16.7" stroke="#FFE3A6" stroke-width=".7" stroke-dasharray="1 1.4" opacity=".75"/><path d="M22.2 319.8h15.6l-1.9 4.4h-11.9Z" fill="#1D1D24"/><path d="M22.2 319.8h15.6" stroke="rgba(255,230,170,.25)" stroke-width=".8"/><path d="M22.7 318.2h14.6" stroke="#FFE3A6" stroke-width=".7" stroke-dasharray="1 1.4" opacity=".75"/><path d="M23.2 289.6h13.5l-1.6 3.8h-10.3Z" fill="#1D1D24"/><path d="M23.2 289.6h13.5" stroke="rgba(255,230,170,.25)" stroke-width=".8"/><path d="M23.7 288h12.5" stroke="#FFE3A6" stroke-width=".7" stroke-dasharray="1 1.4" opacity=".75"/><path d="M25.8 289.6V276.2H34.2V289.6Z" fill="#FFE3A6" opacity=".55"/><path d="M24.8 276.2C24.8 265.7 28.2 261.7 30 259.4C31.8 261.7 35.2 265.7 35.2 276.2Z" fill="url(#ihd-gdvgold)"/><rect x="28.8" y="407.2" width="2.5" height="3.7" rx="1.2" fill="#FFE3A6" opacity=".8"/><rect x="28.8" y="398.8" width="2.5" height="3.7" rx="1.2" fill="#FFE3A6" opacity=".8"/><rect x="28.8" y="390.4" width="2.5" height="3.7" rx="1.2" fill="#FFE3A6" opacity=".8"/><rect x="28.8" y="382" width="2.5" height="3.7" rx="1.2" fill="#FFE3A6" opacity=".8"/><rect x="28.8" y="350.1" width="2.5" height="3.7" rx="1.2" fill="#FFE3A6" opacity=".8"/><rect x="28.8" y="341.7" width="2.5" height="3.7" rx="1.2" fill="#FFE3A6" opacity=".8"/><g transform="translate(30 260.4) scale(0.89)"><path d="M-.6 0V-14h1.2V0Z" fill="url(#ihd-gdvgold)"/><circle cy="-3" r="2.1" fill="url(#ihd-gdvgold)"/><circle cy="-7.6" r="1.7" fill="url(#ihd-gdvgold)"/><ellipse cy="-11" rx="1.2" ry="1.5" fill="url(#ihd-gdvgold)"/><path d="M-3.6 -17.4A4 4 0 0 0 3.6 -17.4A3.2 3.2 0 0 1 -3.6 -17.4Z" fill="url(#ihd-gdvgold)" transform="translate(0 -1.2)"/></g></g><g><path d="M87 420V370.3H97V420Z" fill="#1D1D24"/><path d="M87.7 370.3V334.4H96.3V370.3Z" fill="#1D1D24"/><path d="M88.5 334.4V309.6H95.5V334.4Z" fill="#1D1D24"/><path d="M84.7 370.3h14.5l-1.7 4.1h-11.1Z" fill="#1D1D24"/><path d="M84.7 370.3h14.5" stroke="rgba(255,230,170,.25)" stroke-width=".8"/><path d="M85.2 368.7h13.5" stroke="#FFE3A6" stroke-width=".7" stroke-dasharray="1 1.4" opacity=".75"/><path d="M85.6 334.4h12.8l-1.5 3.6h-9.8Z" fill="#1D1D24"/><path d="M85.6 334.4h12.8" stroke="rgba(255,230,170,.25)" stroke-width=".8"/><path d="M86.1 332.8h11.8" stroke="#FFE3A6" stroke-width=".7" stroke-dasharray="1 1.4" opacity=".75"/><path d="M86.4 309.6h11.1l-1.3 3.1h-8.5Z" fill="#1D1D24"/><path d="M86.4 309.6h11.1" stroke="rgba(255,230,170,.25)" stroke-width=".8"/><path d="M86.9 308h10.1" stroke="#FFE3A6" stroke-width=".7" stroke-dasharray="1 1.4" opacity=".75"/><path d="M88.6 309.6V298.6H95.4V309.6Z" fill="#FFE3A6" opacity=".55"/><path d="M87.7 298.6C87.7 290 90.5 286.7 92 284.8C93.5 286.7 96.3 290 96.3 298.6Z" fill="url(#ihd-gdvgold)"/><rect x="91" y="406.2" width="2.1" height="3" rx="1" fill="#FFE3A6" opacity=".8"/><rect x="91" y="399.3" width="2.1" height="3" rx="1" fill="#FFE3A6" opacity=".8"/><rect x="91" y="392.4" width="2.1" height="3" rx="1" fill="#FFE3A6" opacity=".8"/><rect x="91" y="385.5" width="2.1" height="3" rx="1" fill="#FFE3A6" opacity=".8"/><rect x="91" y="359.3" width="2.1" height="3" rx="1" fill="#FFE3A6" opacity=".8"/><rect x="91" y="352.4" width="2.1" height="3" rx="1" fill="#FFE3A6" opacity=".8"/><g transform="translate(92 285.8) scale(0.73)"><path d="M-.6 0V-14h1.2V0Z" fill="url(#ihd-gdvgold)"/><circle cy="-3" r="2.1" fill="url(#ihd-gdvgold)"/><circle cy="-7.6" r="1.7" fill="url(#ihd-gdvgold)"/><ellipse cy="-11" rx="1.2" ry="1.5" fill="url(#ihd-gdvgold)"/><path d="M-3.6 -17.4A4 4 0 0 0 3.6 -17.4A3.2 3.2 0 0 1 -3.6 -17.4Z" fill="url(#ihd-gdvgold)" transform="translate(0 -1.2)"/></g></g><g><path d="M293 420V370.3H303V420Z" fill="#1D1D24"/><path d="M293.7 370.3V334.4H302.3V370.3Z" fill="#1D1D24"/><path d="M294.5 334.4V309.6H301.5V334.4Z" fill="#1D1D24"/><path d="M290.7 370.3h14.5l-1.7 4.1h-11.1Z" fill="#1D1D24"/><path d="M290.7 370.3h14.5" stroke="rgba(255,230,170,.25)" stroke-width=".8"/><path d="M291.2 368.7h13.5" stroke="#FFE3A6" stroke-width=".7" stroke-dasharray="1 1.4" opacity=".75"/><path d="M291.6 334.4h12.8l-1.5 3.6h-9.8Z" fill="#1D1D24"/><path d="M291.6 334.4h12.8" stroke="rgba(255,230,170,.25)" stroke-width=".8"/><path d="M292.1 332.8h11.8" stroke="#FFE3A6" stroke-width=".7" stroke-dasharray="1 1.4" opacity=".75"/><path d="M292.4 309.6h11.1l-1.3 3.1h-8.5Z" fill="#1D1D24"/><path d="M292.4 309.6h11.1" stroke="rgba(255,230,170,.25)" stroke-width=".8"/><path d="M292.9 308h10.1" stroke="#FFE3A6" stroke-width=".7" stroke-dasharray="1 1.4" opacity=".75"/><path d="M294.6 309.6V298.6H301.4V309.6Z" fill="#FFE3A6" opacity=".55"/><path d="M293.7 298.6C293.7 290 296.5 286.7 298 284.8C299.5 286.7 302.3 290 302.3 298.6Z" fill="url(#ihd-gdvgold)"/><rect x="297" y="406.2" width="2.1" height="3" rx="1" fill="#FFE3A6" opacity=".8"/><rect x="297" y="399.3" width="2.1" height="3" rx="1" fill="#FFE3A6" opacity=".8"/><rect x="297" y="392.4" width="2.1" height="3" rx="1" fill="#FFE3A6" opacity=".8"/><rect x="297" y="385.5" width="2.1" height="3" rx="1" fill="#FFE3A6" opacity=".8"/><rect x="297" y="359.3" width="2.1" height="3" rx="1" fill="#FFE3A6" opacity=".8"/><rect x="297" y="352.4" width="2.1" height="3" rx="1" fill="#FFE3A6" opacity=".8"/><g transform="translate(298 285.8) scale(0.73)"><path d="M-.6 0V-14h1.2V0Z" fill="url(#ihd-gdvgold)"/><circle cy="-3" r="2.1" fill="url(#ihd-gdvgold)"/><circle cy="-7.6" r="1.7" fill="url(#ihd-gdvgold)"/><ellipse cy="-11" rx="1.2" ry="1.5" fill="url(#ihd-gdvgold)"/><path d="M-3.6 -17.4A4 4 0 0 0 3.6 -17.4A3.2 3.2 0 0 1 -3.6 -17.4Z" fill="url(#ihd-gdvgold)" transform="translate(0 -1.2)"/></g></g><g><path d="M355.9 424V363.5H368.1V424Z" fill="#1D1D24"/><path d="M356.8 363.5V319.8H367.2V363.5Z" fill="#1D1D24"/><path d="M357.7 319.8V289.6H366.3V319.8Z" fill="#1D1D24"/><path d="M353.1 363.5h17.7l-2.1 5h-13.5Z" fill="#1D1D24"/><path d="M353.1 363.5h17.7" stroke="rgba(255,230,170,.25)" stroke-width=".8"/><path d="M353.6 361.9h16.7" stroke="#FFE3A6" stroke-width=".7" stroke-dasharray="1 1.4" opacity=".75"/><path d="M354.2 319.8h15.6l-1.9 4.4h-11.9Z" fill="#1D1D24"/><path d="M354.2 319.8h15.6" stroke="rgba(255,230,170,.25)" stroke-width=".8"/><path d="M354.7 318.2h14.6" stroke="#FFE3A6" stroke-width=".7" stroke-dasharray="1 1.4" opacity=".75"/><path d="M355.2 289.6h13.5l-1.6 3.8h-10.3Z" fill="#1D1D24"/><path d="M355.2 289.6h13.5" stroke="rgba(255,230,170,.25)" stroke-width=".8"/><path d="M355.7 288h12.5" stroke="#FFE3A6" stroke-width=".7" stroke-dasharray="1 1.4" opacity=".75"/><path d="M357.8 289.6V276.2H366.2V289.6Z" fill="#FFE3A6" opacity=".55"/><path d="M356.8 276.2C356.8 265.7 360.2 261.7 362 259.4C363.8 261.7 367.2 265.7 367.2 276.2Z" fill="url(#ihd-gdvgold)"/><rect x="360.8" y="407.2" width="2.5" height="3.7" rx="1.2" fill="#FFE3A6" opacity=".8"/><rect x="360.8" y="398.8" width="2.5" height="3.7" rx="1.2" fill="#FFE3A6" opacity=".8"/><rect x="360.8" y="390.4" width="2.5" height="3.7" rx="1.2" fill="#FFE3A6" opacity=".8"/><rect x="360.8" y="382" width="2.5" height="3.7" rx="1.2" fill="#FFE3A6" opacity=".8"/><rect x="360.8" y="350.1" width="2.5" height="3.7" rx="1.2" fill="#FFE3A6" opacity=".8"/><rect x="360.8" y="341.7" width="2.5" height="3.7" rx="1.2" fill="#FFE3A6" opacity=".8"/><g transform="translate(362 260.4) scale(0.89)"><path d="M-.6 0V-14h1.2V0Z" fill="url(#ihd-gdvgold)"/><circle cy="-3" r="2.1" fill="url(#ihd-gdvgold)"/><circle cy="-7.6" r="1.7" fill="url(#ihd-gdvgold)"/><ellipse cy="-11" rx="1.2" ry="1.5" fill="url(#ihd-gdvgold)"/><path d="M-3.6 -17.4A4 4 0 0 0 3.6 -17.4A3.2 3.2 0 0 1 -3.6 -17.4Z" fill="url(#ihd-gdvgold)" transform="translate(0 -1.2)"/></g></g><rect x="-10" y="396" width="410" height="36" fill="#1B1B22"/><rect x="-10" y="396" width="410" height="2" fill="#8A6424"/><path d="M-5.6 432V414.6A18.6 18.6 0 0 1 5.8 404A18.6 18.6 0 0 1 17.1 414.6V432Z" fill="url(#ihd-arll)"/><path d="M-5.6 432V414.6A18.6 18.6 0 0 1 5.8 404A18.6 18.6 0 0 1 17.1 414.6V432Z" fill="none" stroke="rgba(255,225,160,.35)" stroke-width="0.9"/><path d="M26 432V414.6A18.6 18.6 0 0 1 37.3 404A18.6 18.6 0 0 1 48.7 414.6V432Z" fill="url(#ihd-arll)"/><path d="M26 432V414.6A18.6 18.6 0 0 1 37.3 404A18.6 18.6 0 0 1 48.7 414.6V432Z" fill="none" stroke="rgba(255,225,160,.35)" stroke-width="0.9"/><path d="M57.5 432V414.6A18.6 18.6 0 0 1 68.8 404A18.6 18.6 0 0 1 80.2 414.6V432Z" fill="url(#ihd-arll)"/><path d="M57.5 432V414.6A18.6 18.6 0 0 1 68.8 404A18.6 18.6 0 0 1 80.2 414.6V432Z" fill="none" stroke="rgba(255,225,160,.35)" stroke-width="0.9"/><path d="M89 432V414.6A18.6 18.6 0 0 1 100.4 404A18.6 18.6 0 0 1 111.7 414.6V432Z" fill="url(#ihd-arll)"/><path d="M89 432V414.6A18.6 18.6 0 0 1 100.4 404A18.6 18.6 0 0 1 111.7 414.6V432Z" fill="none" stroke="rgba(255,225,160,.35)" stroke-width="0.9"/><path d="M120.6 432V414.6A18.6 18.6 0 0 1 131.9 404A18.6 18.6 0 0 1 143.3 414.6V432Z" fill="url(#ihd-arll)"/><path d="M120.6 432V414.6A18.6 18.6 0 0 1 131.9 404A18.6 18.6 0 0 1 143.3 414.6V432Z" fill="none" stroke="rgba(255,225,160,.35)" stroke-width="0.9"/><path d="M152.1 432V414.6A18.6 18.6 0 0 1 163.5 404A18.6 18.6 0 0 1 174.8 414.6V432Z" fill="url(#ihd-arll)"/><path d="M152.1 432V414.6A18.6 18.6 0 0 1 163.5 404A18.6 18.6 0 0 1 174.8 414.6V432Z" fill="none" stroke="rgba(255,225,160,.35)" stroke-width="0.9"/><path d="M183.6 432V414.6A18.6 18.6 0 0 1 195 404A18.6 18.6 0 0 1 206.4 414.6V432Z" fill="url(#ihd-arll)"/><path d="M183.6 432V414.6A18.6 18.6 0 0 1 195 404A18.6 18.6 0 0 1 206.4 414.6V432Z" fill="none" stroke="rgba(255,225,160,.35)" stroke-width="0.9"/><path d="M215.2 432V414.6A18.6 18.6 0 0 1 226.5 404A18.6 18.6 0 0 1 237.9 414.6V432Z" fill="url(#ihd-arll)"/><path d="M215.2 432V414.6A18.6 18.6 0 0 1 226.5 404A18.6 18.6 0 0 1 237.9 414.6V432Z" fill="none" stroke="rgba(255,225,160,.35)" stroke-width="0.9"/><path d="M246.7 432V414.6A18.6 18.6 0 0 1 258.1 404A18.6 18.6 0 0 1 269.4 414.6V432Z" fill="url(#ihd-arll)"/><path d="M246.7 432V414.6A18.6 18.6 0 0 1 258.1 404A18.6 18.6 0 0 1 269.4 414.6V432Z" fill="none" stroke="rgba(255,225,160,.35)" stroke-width="0.9"/><path d="M278.3 432V414.6A18.6 18.6 0 0 1 289.6 404A18.6 18.6 0 0 1 301 414.6V432Z" fill="url(#ihd-arll)"/><path d="M278.3 432V414.6A18.6 18.6 0 0 1 289.6 404A18.6 18.6 0 0 1 301 414.6V432Z" fill="none" stroke="rgba(255,225,160,.35)" stroke-width="0.9"/><path d="M309.8 432V414.6A18.6 18.6 0 0 1 321.2 404A18.6 18.6 0 0 1 332.5 414.6V432Z" fill="url(#ihd-arll)"/><path d="M309.8 432V414.6A18.6 18.6 0 0 1 321.2 404A18.6 18.6 0 0 1 332.5 414.6V432Z" fill="none" stroke="rgba(255,225,160,.35)" stroke-width="0.9"/><path d="M341.3 432V414.6A18.6 18.6 0 0 1 352.7 404A18.6 18.6 0 0 1 364 414.6V432Z" fill="url(#ihd-arll)"/><path d="M341.3 432V414.6A18.6 18.6 0 0 1 352.7 404A18.6 18.6 0 0 1 364 414.6V432Z" fill="none" stroke="rgba(255,225,160,.35)" stroke-width="0.9"/><path d="M372.9 432V414.6A18.6 18.6 0 0 1 384.2 404A18.6 18.6 0 0 1 395.6 414.6V432Z" fill="url(#ihd-arll)"/><path d="M372.9 432V414.6A18.6 18.6 0 0 1 384.2 404A18.6 18.6 0 0 1 395.6 414.6V432Z" fill="none" stroke="rgba(255,225,160,.35)" stroke-width="0.9"/><ellipse cx="195" cy="478" rx="260" ry="54" fill="url(#ihd-mtf)"/><ellipse cx="195" cy="470" rx="150" ry="30" fill="none" stroke="#FFFFFF" stroke-width="1" opacity="0.55"/><ellipse cx="195" cy="470" rx="190" ry="38" fill="none" stroke="#FFFFFF" stroke-width="1" opacity="0.43"/><ellipse cx="195" cy="470" rx="226" ry="45" fill="none" stroke="#FFFFFF" stroke-width="1" opacity="0.31"/><ellipse cx="195" cy="472" rx="150" ry="30" fill="url(#ihd-glmtFFF4D6)" opacity=".8"/><circle r="1.3" fill="#C9A45A" opacity="0.45"><animateMotion dur="44s" repeatCount="indefinite" begin="-0s" path="M67 474A128 24 0 1 0 323 474A128 24 0 1 0 67 474"/></circle><circle r="1.3" fill="#C9A45A" opacity="0.63"><animateMotion dur="44s" repeatCount="indefinite" begin="-2.8s" path="M67 474A128 24 0 1 0 323 474A128 24 0 1 0 67 474"/></circle><circle r="1.3" fill="#C9A45A" opacity="0.81"><animateMotion dur="44s" repeatCount="indefinite" begin="-5.5s" path="M67 474A128 24 0 1 0 323 474A128 24 0 1 0 67 474"/></circle><circle r="1.3" fill="#C9A45A" opacity="0.45"><animateMotion dur="44s" repeatCount="indefinite" begin="-8.3s" path="M67 474A128 24 0 1 0 323 474A128 24 0 1 0 67 474"/></circle><circle r="1.3" fill="#C9A45A" opacity="0.63"><animateMotion dur="44s" repeatCount="indefinite" begin="-11s" path="M67 474A128 24 0 1 0 323 474A128 24 0 1 0 67 474"/></circle><circle r="1.3" fill="#C9A45A" opacity="0.81"><animateMotion dur="44s" repeatCount="indefinite" begin="-13.8s" path="M67 474A128 24 0 1 0 323 474A128 24 0 1 0 67 474"/></circle><circle r="1.3" fill="#C9A45A" opacity="0.45"><animateMotion dur="44s" repeatCount="indefinite" begin="-16.5s" path="M67 474A128 24 0 1 0 323 474A128 24 0 1 0 67 474"/></circle><circle r="1.3" fill="#C9A45A" opacity="0.63"><animateMotion dur="44s" repeatCount="indefinite" begin="-19.3s" path="M67 474A128 24 0 1 0 323 474A128 24 0 1 0 67 474"/></circle><circle r="1.3" fill="#C9A45A" opacity="0.81"><animateMotion dur="44s" repeatCount="indefinite" begin="-22s" path="M67 474A128 24 0 1 0 323 474A128 24 0 1 0 67 474"/></circle><circle r="1.3" fill="#C9A45A" opacity="0.45"><animateMotion dur="44s" repeatCount="indefinite" begin="-24.8s" path="M67 474A128 24 0 1 0 323 474A128 24 0 1 0 67 474"/></circle><circle r="1.3" fill="#C9A45A" opacity="0.63"><animateMotion dur="44s" repeatCount="indefinite" begin="-27.5s" path="M67 474A128 24 0 1 0 323 474A128 24 0 1 0 67 474"/></circle><circle r="1.3" fill="#C9A45A" opacity="0.81"><animateMotion dur="44s" repeatCount="indefinite" begin="-30.3s" path="M67 474A128 24 0 1 0 323 474A128 24 0 1 0 67 474"/></circle><circle r="1.3" fill="#C9A45A" opacity="0.45"><animateMotion dur="44s" repeatCount="indefinite" begin="-33s" path="M67 474A128 24 0 1 0 323 474A128 24 0 1 0 67 474"/></circle><circle r="1.3" fill="#C9A45A" opacity="0.63"><animateMotion dur="44s" repeatCount="indefinite" begin="-35.8s" path="M67 474A128 24 0 1 0 323 474A128 24 0 1 0 67 474"/></circle><circle r="1.3" fill="#C9A45A" opacity="0.81"><animateMotion dur="44s" repeatCount="indefinite" begin="-38.5s" path="M67 474A128 24 0 1 0 323 474A128 24 0 1 0 67 474"/></circle><circle r="1.3" fill="#C9A45A" opacity="0.45"><animateMotion dur="44s" repeatCount="indefinite" begin="-41.3s" path="M67 474A128 24 0 1 0 323 474A128 24 0 1 0 67 474"/></circle><circle r="1.1" fill="#B08A48" opacity="0.45"><animateMotion dur="60s" repeatCount="indefinite" begin="-0s" path="M27 476A168 31 0 1 0 363 476A168 31 0 1 0 27 476"/></circle><circle r="1.1" fill="#B08A48" opacity="0.63"><animateMotion dur="60s" repeatCount="indefinite" begin="-3s" path="M27 476A168 31 0 1 0 363 476A168 31 0 1 0 27 476"/></circle><circle r="1.1" fill="#B08A48" opacity="0.81"><animateMotion dur="60s" repeatCount="indefinite" begin="-6s" path="M27 476A168 31 0 1 0 363 476A168 31 0 1 0 27 476"/></circle><circle r="1.1" fill="#B08A48" opacity="0.45"><animateMotion dur="60s" repeatCount="indefinite" begin="-9s" path="M27 476A168 31 0 1 0 363 476A168 31 0 1 0 27 476"/></circle><circle r="1.1" fill="#B08A48" opacity="0.63"><animateMotion dur="60s" repeatCount="indefinite" begin="-12s" path="M27 476A168 31 0 1 0 363 476A168 31 0 1 0 27 476"/></circle><circle r="1.1" fill="#B08A48" opacity="0.81"><animateMotion dur="60s" repeatCount="indefinite" begin="-15s" path="M27 476A168 31 0 1 0 363 476A168 31 0 1 0 27 476"/></circle><circle r="1.1" fill="#B08A48" opacity="0.45"><animateMotion dur="60s" repeatCount="indefinite" begin="-18s" path="M27 476A168 31 0 1 0 363 476A168 31 0 1 0 27 476"/></circle><circle r="1.1" fill="#B08A48" opacity="0.63"><animateMotion dur="60s" repeatCount="indefinite" begin="-21s" path="M27 476A168 31 0 1 0 363 476A168 31 0 1 0 27 476"/></circle><circle r="1.1" fill="#B08A48" opacity="0.81"><animateMotion dur="60s" repeatCount="indefinite" begin="-24s" path="M27 476A168 31 0 1 0 363 476A168 31 0 1 0 27 476"/></circle><circle r="1.1" fill="#B08A48" opacity="0.45"><animateMotion dur="60s" repeatCount="indefinite" begin="-27s" path="M27 476A168 31 0 1 0 363 476A168 31 0 1 0 27 476"/></circle><circle r="1.1" fill="#B08A48" opacity="0.63"><animateMotion dur="60s" repeatCount="indefinite" begin="-30s" path="M27 476A168 31 0 1 0 363 476A168 31 0 1 0 27 476"/></circle><circle r="1.1" fill="#B08A48" opacity="0.81"><animateMotion dur="60s" repeatCount="indefinite" begin="-33s" path="M27 476A168 31 0 1 0 363 476A168 31 0 1 0 27 476"/></circle><circle r="1.1" fill="#B08A48" opacity="0.45"><animateMotion dur="60s" repeatCount="indefinite" begin="-36s" path="M27 476A168 31 0 1 0 363 476A168 31 0 1 0 27 476"/></circle><circle r="1.1" fill="#B08A48" opacity="0.63"><animateMotion dur="60s" repeatCount="indefinite" begin="-39s" path="M27 476A168 31 0 1 0 363 476A168 31 0 1 0 27 476"/></circle><circle r="1.1" fill="#B08A48" opacity="0.81"><animateMotion dur="60s" repeatCount="indefinite" begin="-42s" path="M27 476A168 31 0 1 0 363 476A168 31 0 1 0 27 476"/></circle><circle r="1.1" fill="#B08A48" opacity="0.45"><animateMotion dur="60s" repeatCount="indefinite" begin="-45s" path="M27 476A168 31 0 1 0 363 476A168 31 0 1 0 27 476"/></circle><circle r="1.1" fill="#B08A48" opacity="0.63"><animateMotion dur="60s" repeatCount="indefinite" begin="-48s" path="M27 476A168 31 0 1 0 363 476A168 31 0 1 0 27 476"/></circle><circle r="1.1" fill="#B08A48" opacity="0.81"><animateMotion dur="60s" repeatCount="indefinite" begin="-51s" path="M27 476A168 31 0 1 0 363 476A168 31 0 1 0 27 476"/></circle><circle r="1.1" fill="#B08A48" opacity="0.45"><animateMotion dur="60s" repeatCount="indefinite" begin="-54s" path="M27 476A168 31 0 1 0 363 476A168 31 0 1 0 27 476"/></circle><circle r="1.1" fill="#B08A48" opacity="0.63"><animateMotion dur="60s" repeatCount="indefinite" begin="-57s" path="M27 476A168 31 0 1 0 363 476A168 31 0 1 0 27 476"/></circle><circle r="1" fill="#9A7A44" opacity="0.45"><animateMotion dur="76s" repeatCount="indefinite" begin="-0s" path="M-9 478A204 38 0 1 0 399 478A204 38 0 1 0 -9 478"/></circle><circle r="1" fill="#9A7A44" opacity="0.63"><animateMotion dur="76s" repeatCount="indefinite" begin="-3.2s" path="M-9 478A204 38 0 1 0 399 478A204 38 0 1 0 -9 478"/></circle><circle r="1" fill="#9A7A44" opacity="0.81"><animateMotion dur="76s" repeatCount="indefinite" begin="-6.3s" path="M-9 478A204 38 0 1 0 399 478A204 38 0 1 0 -9 478"/></circle><circle r="1" fill="#9A7A44" opacity="0.45"><animateMotion dur="76s" repeatCount="indefinite" begin="-9.5s" path="M-9 478A204 38 0 1 0 399 478A204 38 0 1 0 -9 478"/></circle><circle r="1" fill="#9A7A44" opacity="0.63"><animateMotion dur="76s" repeatCount="indefinite" begin="-12.7s" path="M-9 478A204 38 0 1 0 399 478A204 38 0 1 0 -9 478"/></circle><circle r="1" fill="#9A7A44" opacity="0.81"><animateMotion dur="76s" repeatCount="indefinite" begin="-15.8s" path="M-9 478A204 38 0 1 0 399 478A204 38 0 1 0 -9 478"/></circle><circle r="1" fill="#9A7A44" opacity="0.45"><animateMotion dur="76s" repeatCount="indefinite" begin="-19s" path="M-9 478A204 38 0 1 0 399 478A204 38 0 1 0 -9 478"/></circle><circle r="1" fill="#9A7A44" opacity="0.63"><animateMotion dur="76s" repeatCount="indefinite" begin="-22.2s" path="M-9 478A204 38 0 1 0 399 478A204 38 0 1 0 -9 478"/></circle><circle r="1" fill="#9A7A44" opacity="0.81"><animateMotion dur="76s" repeatCount="indefinite" begin="-25.3s" path="M-9 478A204 38 0 1 0 399 478A204 38 0 1 0 -9 478"/></circle><circle r="1" fill="#9A7A44" opacity="0.45"><animateMotion dur="76s" repeatCount="indefinite" begin="-28.5s" path="M-9 478A204 38 0 1 0 399 478A204 38 0 1 0 -9 478"/></circle><circle r="1" fill="#9A7A44" opacity="0.63"><animateMotion dur="76s" repeatCount="indefinite" begin="-31.7s" path="M-9 478A204 38 0 1 0 399 478A204 38 0 1 0 -9 478"/></circle><circle r="1" fill="#9A7A44" opacity="0.81"><animateMotion dur="76s" repeatCount="indefinite" begin="-34.8s" path="M-9 478A204 38 0 1 0 399 478A204 38 0 1 0 -9 478"/></circle><circle r="1" fill="#9A7A44" opacity="0.45"><animateMotion dur="76s" repeatCount="indefinite" begin="-38s" path="M-9 478A204 38 0 1 0 399 478A204 38 0 1 0 -9 478"/></circle><circle r="1" fill="#9A7A44" opacity="0.63"><animateMotion dur="76s" repeatCount="indefinite" begin="-41.2s" path="M-9 478A204 38 0 1 0 399 478A204 38 0 1 0 -9 478"/></circle><circle r="1" fill="#9A7A44" opacity="0.81"><animateMotion dur="76s" repeatCount="indefinite" begin="-44.3s" path="M-9 478A204 38 0 1 0 399 478A204 38 0 1 0 -9 478"/></circle><circle r="1" fill="#9A7A44" opacity="0.45"><animateMotion dur="76s" repeatCount="indefinite" begin="-47.5s" path="M-9 478A204 38 0 1 0 399 478A204 38 0 1 0 -9 478"/></circle><circle r="1" fill="#9A7A44" opacity="0.63"><animateMotion dur="76s" repeatCount="indefinite" begin="-50.7s" path="M-9 478A204 38 0 1 0 399 478A204 38 0 1 0 -9 478"/></circle><circle r="1" fill="#9A7A44" opacity="0.81"><animateMotion dur="76s" repeatCount="indefinite" begin="-53.8s" path="M-9 478A204 38 0 1 0 399 478A204 38 0 1 0 -9 478"/></circle><circle r="1" fill="#9A7A44" opacity="0.45"><animateMotion dur="76s" repeatCount="indefinite" begin="-57s" path="M-9 478A204 38 0 1 0 399 478A204 38 0 1 0 -9 478"/></circle><circle r="1" fill="#9A7A44" opacity="0.63"><animateMotion dur="76s" repeatCount="indefinite" begin="-60.2s" path="M-9 478A204 38 0 1 0 399 478A204 38 0 1 0 -9 478"/></circle><circle r="1" fill="#9A7A44" opacity="0.81"><animateMotion dur="76s" repeatCount="indefinite" begin="-63.3s" path="M-9 478A204 38 0 1 0 399 478A204 38 0 1 0 -9 478"/></circle><circle r="1" fill="#9A7A44" opacity="0.45"><animateMotion dur="76s" repeatCount="indefinite" begin="-66.5s" path="M-9 478A204 38 0 1 0 399 478A204 38 0 1 0 -9 478"/></circle><circle r="1" fill="#9A7A44" opacity="0.63"><animateMotion dur="76s" repeatCount="indefinite" begin="-69.7s" path="M-9 478A204 38 0 1 0 399 478A204 38 0 1 0 -9 478"/></circle><circle r="1" fill="#9A7A44" opacity="0.81"><animateMotion dur="76s" repeatCount="indefinite" begin="-72.8s" path="M-9 478A204 38 0 1 0 399 478A204 38 0 1 0 -9 478"/></circle><ellipse cx="200" cy="472.8" rx="78.7" ry="11" fill="#000" opacity=".32"/><path d="M175.2 470V381.7L139.3 367.9V456.2Z" fill="url(#ihd-kbs)"/><rect x="175.2" y="381.7" width="85.6" height="88.3" fill="url(#ihd-kbf)"/><path d="M175.2 381.7H260.7L224.8 367.9H139.3Z" fill="#303036"/><path d="M175.2 413.2V402.9L139.3 389.1V399.4Z" fill="#6A4E1E"/><rect x="175.2" y="402.9" width="85.6" height="10.4" fill="#8A6424"/><path d="M177.9 409.5C179.3 405.2 180.9 405.2 181.3 409.5S183.3 411 184.6 409.5C185.9 405.2 187.6 405.2 187.9 409.5S189.9 411 191.3 409.5C192.6 405.2 194.3 405.2 194.6 409.5S196.6 411 197.9 409.5C199.3 405.2 200.9 405.2 201.3 409.5S203.3 411 204.6 409.5C205.9 405.2 207.6 405.2 207.9 409.5S209.9 411 211.3 409.5C212.6 405.2 214.3 405.2 214.6 409.5S216.6 411 217.9 409.5C219.3 405.2 220.9 405.2 221.3 409.5S223.3 411 224.6 409.5C225.9 405.2 227.6 405.2 227.9 409.5S229.9 411 231.3 409.5C232.6 405.2 234.3 405.2 234.6 409.5S236.6 411 237.9 409.5C239.3 405.2 241 405.2 241.3 409.5S243.3 411 244.6 409.5C246 405.2 247.6 405.2 248 409.5S250 411 251.3 409.5C252.6 405.2 254.3 405.2 254.6 409.5S256.6 411 258 409.5" fill="none" stroke="#F6DE92" stroke-width="1.035" stroke-linecap="round"/><path d="M179.9 404.1v2.2" stroke="#F6DE92" stroke-width="1.035"/><path d="M193.3 404.1v2.2" stroke="#F6DE92" stroke-width="1.035"/><path d="M206.6 404.1v2.2" stroke="#F6DE92" stroke-width="1.035"/><path d="M219.9 404.1v2.2" stroke="#F6DE92" stroke-width="1.035"/><path d="M233.3 404.1v2.2" stroke="#F6DE92" stroke-width="1.035"/><path d="M246.6 404.1v2.2" stroke="#F6DE92" stroke-width="1.035"/><path d="M175.2 402.9h85.6M175.2 413.2h85.6" stroke="url(#ihd-gdvgold)" stroke-width="1.1"/><path d="M175.2 402.9L139.3 389.1M175.2 413.2L139.3 399.4" stroke="url(#ihd-gdvgold)" stroke-width="0.8" opacity=".8"/><path d="M181.3 416h8.3v8.3l-4.1 3.6l-4.1 -3.6Z" fill="none" stroke="#B89040" stroke-width="0.8" opacity=".7"/><path d="M197.5 416h8.3v8.3l-4.1 3.6l-4.1 -3.6Z" fill="none" stroke="#B89040" stroke-width="0.8" opacity=".7"/><path d="M213.8 416h8.3v8.3l-4.1 3.6l-4.1 -3.6Z" fill="none" stroke="#B89040" stroke-width="0.8" opacity=".7"/><path d="M230.1 416h8.3v8.3l-4.1 3.6l-4.1 -3.6Z" fill="none" stroke="#B89040" stroke-width="0.8" opacity=".7"/><path d="M246.3 416h8.3v8.3l-4.1 3.6l-4.1 -3.6Z" fill="none" stroke="#B89040" stroke-width="0.8" opacity=".7"/><rect x="223.7" y="417.9" width="22.6" height="45.9" fill="#5A4218"/><rect x="226.5" y="422.3" width="17.1" height="41.5" rx="1.4" fill="url(#ihd-gdvgold)"/><rect x="228.5" y="425.1" width="13" height="36" fill="none" stroke="#8A6220" stroke-width="0.8"/><path d="M235.1 425.1V461.1" stroke="#8A6220" stroke-width="0.7"/><path d="M232.8 434.4L233.3 435.6L234.4 436.1L234 437.3L234.4 438.4L233.3 438.9L232.8 440.1L231.6 439.6L230.5 440.1L230 438.9L228.8 438.4L229.3 437.3L228.8 436.1L230 435.6L230.5 434.4L231.6 434.9ZM239.6 434.4L240.1 435.6L241.3 436.1L240.8 437.3L241.3 438.4L240.1 438.9L239.6 440.1L238.5 439.6L237.3 440.1L236.8 438.9L235.7 438.4L236.2 437.3L235.7 436.1L236.8 435.6L237.3 434.4L238.5 434.9Z" fill="#FFF3C4" opacity=".8"/><path d="M224.4 416C225.1 413.9 226 413.9 226.2 416S227.3 416.7 228 416C228.7 413.9 229.6 413.9 229.7 416S230.8 416.7 231.5 416C232.2 413.9 233.1 413.9 233.3 416S234.3 416.7 235.1 416C235.8 413.9 236.6 413.9 236.8 416S237.9 416.7 238.6 416C239.3 413.9 240.2 413.9 240.4 416S241.4 416.7 242.1 416C242.8 413.9 243.7 413.9 243.9 416S245 416.7 245.7 416" fill="none" stroke="#F6DE92" stroke-width="0.69" stroke-linecap="round"/><path d="M225.5 413.4v1" stroke="#F6DE92" stroke-width="0.69"/><path d="M232.6 413.4v1" stroke="#F6DE92" stroke-width="0.69"/><path d="M239.7 413.4v1" stroke="#F6DE92" stroke-width="0.69"/><rect x="175.2" y="465.9" width="87.6" height="5" fill="#D6CFBF"/><path d="M175.2 470.8V465.9L139.3 452.1V457Z" fill="#A9A294"/><path d="M175.2 381.7V465.9" stroke="rgba(255,240,200,.25)" stroke-width="1.1"/><path d="M171 474.1C133.8 486.6 111.7 467.2 136.5 454.8" fill="none" stroke="#EDE8DC" stroke-width="4.7" stroke-linecap="round"/><g transform="translate(292 478)"><ellipse cy="2" rx="7" ry="2" fill="#000" opacity=".2"/><path d="M-5 0V-9H5V0Z" fill="url(#ihd-gdvgold)"/><path d="M-5.4 -9C-5.4 -12.4 -3 -15 0 -15C3 -15 5.4 -12.4 5.4 -9Z" fill="url(#ihd-gdvgold)"/><path d="M-3 -1V-8M0 -1V-8M3 -1V-8" stroke="#6E5220" stroke-width=".6"/></g><g transform="translate(84 250) rotate(-8) scale(0.42)"><ellipse cx="0" cy="2" rx="9" ry="4.6" fill="url(#ihd-dvb)"/><path d="M8 2L15 -1L14 4L16 6L8 5Z" fill="#E6EDF6"/><circle cx="-8" cy="0" r="3.6" fill="url(#ihd-dvb)"/><path d="M-11.4 -.2L-14 .8L-11.2 1.6Z" fill="#E7A24A"/><circle cx="-9" cy="-.8" r=".8" fill="#2A2A36"/><g class="wg dv"><path d="M-2 -1C-6 -12 -16 -18 -24 -16C-18 -12 -12 -6 -8 1Z" fill="url(#ihd-dvw)"/><path d="M2 -1C6 -12 16 -18 24 -16C18 -12 12 -6 8 1Z" fill="url(#ihd-dvw)"/></g></g><g transform="translate(118 232) rotate(6) scale(0.32)"><ellipse cx="0" cy="2" rx="9" ry="4.6" fill="url(#ihd-dvb)"/><path d="M8 2L15 -1L14 4L16 6L8 5Z" fill="#E6EDF6"/><circle cx="-8" cy="0" r="3.6" fill="url(#ihd-dvb)"/><path d="M-11.4 -.2L-14 .8L-11.2 1.6Z" fill="#E7A24A"/><circle cx="-9" cy="-.8" r=".8" fill="#2A2A36"/><g class="wg dv"><path d="M-2 -1C-6 -12 -16 -18 -24 -16C-18 -12 -12 -6 -8 1Z" fill="url(#ihd-dvw)"/><path d="M2 -1C6 -12 16 -18 24 -16C18 -12 12 -6 8 1Z" fill="url(#ihd-dvw)"/></g></g></g></svg>