<?xml version="1.0" encoding="UTF-8"?>
<svg width="780" height="984" xmlns="http://www.w3.org/2000/svg" viewBox="0 0 390 492" preserveAspectRatio="xMidYMax slice"><defs><pattern id="ihq-mdp" width="120" height="120" patternUnits="userSpaceOnUse"><g fill="none" stroke="#E9D8A6" stroke-width="0.6"><circle cx="0" cy="0" r="42.4"/><circle cx="0" cy="60" r="42.4"/><circle cx="0" cy="120" r="42.4"/><circle cx="60" cy="0" r="42.4"/><circle cx="60" cy="60" r="42.4"/><circle cx="60" cy="120" r="42.4"/><circle cx="120" cy="0" r="42.4"/><circle cx="120" cy="60" r="42.4"/><circle cx="120" cy="120" r="42.4"/></g><g fill="#E9D8A6"><path d="M31.5 26.3L32.2 27.8L33.7 28.5L33.1 30L33.7 31.5L32.2 32.2L31.5 33.7L30 33.1L28.5 33.7L27.8 32.2L26.3 31.5L26.9 30L26.3 28.5L27.8 27.8L28.5 26.3L30 26.9Z"/><path d="M91.5 26.3L92.2 27.8L93.7 28.5L93.1 30L93.7 31.5L92.2 32.2L91.5 33.7L90 33.1L88.5 33.7L87.8 32.2L86.3 31.5L86.9 30L86.3 28.5L87.8 27.8L88.5 26.3L90 26.9Z"/><path d="M31.5 86.3L32.2 87.8L33.7 88.5L33.1 90L33.7 91.5L32.2 92.2L31.5 93.7L30 93.1L28.5 93.7L27.8 92.2L26.3 91.5L26.9 90L26.3 88.5L27.8 87.8L28.5 86.3L30 86.9Z"/><path d="M91.5 86.3L92.2 87.8L93.7 88.5L93.1 90L93.7 91.5L92.2 92.2L91.5 93.7L90 93.1L88.5 93.7L87.8 92.2L86.3 91.5L86.9 90L86.3 88.5L87.8 87.8L88.5 86.3L90 86.9Z"/></g></pattern><linearGradient id="ihq-mdmg" x1="0" y1="0" x2="0" y2="1"><stop offset="0" stop-color="#FFFFFF" stop-opacity="0.7"/><stop offset="0.16" stop-color="#FFFFFF" stop-opacity="0.5"/><stop offset="0.5" stop-color="#FFFFFF" stop-opacity="0"/></linearGradient><mask id="ihq-mdm"><rect width="390" height="492" fill="url(#ihq-mdmg)"/></mask><linearGradient id="ihq-crg" x1="0" y1="0" x2="1" y2="1"><stop offset="0" stop-color="#FFF8D6"/><stop offset="0.45" stop-color="#FFDF7A"/><stop offset="1" stop-color="#F0A92A"/></linearGradient><radialGradient id="ihq-crw" cx="0.5" cy="0.5" r="0.5"><stop offset="0" stop-color="#FFE9A8" stop-opacity="0.5"/><stop offset="0.5" stop-color="#FFE9A8" stop-opacity="0.12"/><stop offset="1" stop-color="#FFE9A8" stop-opacity="0"/></radialGradient><linearGradient id="ihq-arlmd" x1="0" y1="0" x2="0" y2="1"><stop offset="0" stop-color="#FFF2CC"/><stop offset="1" stop-color="#D9A94E"/></linearGradient><linearGradient id="ihq-sdm" x1="0" y1="0" x2="0" y2="1"><stop offset="0" stop-color="#F4F6F8"/><stop offset="1" stop-color="#AEB6BE"/></linearGradient><linearGradient id="ihq-gdvgold" x1="0" y1="0" x2="0" y2="1"><stop offset="0" stop-color="#FFF6D2"/><stop offset="0.4" stop-color="#F2D27A"/><stop offset="0.75" stop-color="#C99A3A"/><stop offset="1" stop-color="#8A6220"/></linearGradient><linearGradient id="ihq-gdm" x1="0" y1="0" x2="1" y2="0"><stop offset="0" stop-color="#1F7A4C"/><stop offset="0.45" stop-color="#3FB57A"/><stop offset="0.7" stop-color="#2E9A62"/><stop offset="1" stop-color="#155C38"/></linearGradient><linearGradient id="ihq-gdb" x1="0" y1="0" x2="1" y2="0"><stop offset="0" stop-color="#1C6E45"/><stop offset="0.5" stop-color="#2F9C63"/><stop offset="1" stop-color="#155C38"/></linearGradient><linearGradient id="ihq-mdf" x1="0" y1="0" x2="0" y2="1"><stop offset="0" stop-color="#F3EFE6"/><stop offset="1" stop-color="#CFC7B6"/></linearGradient><linearGradient id="ihq-umg" x1="0" y1="0" x2="0" y2="1"><stop offset="0" stop-color="#FFFFFF"/><stop offset="1" stop-color="#D9D4C7"/></linearGradient><radialGradient id="ihq-glumFFF1C8" cx="0.5" cy="0.5" r="0.5"><stop offset="0" stop-color="#FFF1C8" stop-opacity="0.85"/><stop offset="0.35" stop-color="#FFF1C8" stop-opacity="0.32"/><stop offset="1" stop-color="#FFF1C8" stop-opacity="0"/></radialGradient><linearGradient id="ihq-dvw" x1="0" y1="0" x2="0" y2="1"><stop offset="0" stop-color="#FFFFFF"/><stop offset="1" stop-color="#DCE6F2"/></linearGradient><radialGradient id="ihq-dvb" cx="0.4" cy="0.35" r="0.8"><stop offset="0" stop-color="#FFFFFF"/><stop offset="1" stop-color="#D6E0EE"/></radialGradient></defs><rect x="-10" y="400" width="410" height="100" fill="#D6CEBC"/><g transform="translate(0 -38)"><rect width="390" height="300" fill="url(#ihq-mdp)" mask="url(#ihq-mdm)" opacity=".22"/><g fill="#FFF6DA"><circle cx="0.1" cy="8.1" r="0.7" opacity="0.61"/><circle cx="98.9" cy="11.5" r="0.4" opacity="0.65"/><circle cx="243.3" cy="159.3" r="1.2" opacity="0.87"/><circle cx="43.8" cy="254.5" r="0.6" opacity="0.37"/><circle cx="170.2" cy="56.7" r="1.2" opacity="0.6"/><circle cx="234.8" cy="254.6" r="0.9" opacity="0.51"/><circle cx="180.1" cy="38.2" r="0.5" opacity="0.28"/><circle cx="221.5" cy="40.8" r="1.3" opacity="0.59"/><circle cx="14.2" cy="29.3" r="1.3" opacity="0.61"/><circle cx="214.8" cy="127.2" r="1.2" opacity="0.51"/><circle cx="265.9" cy="191.6" r="1" opacity="0.46"/><circle cx="384.1" cy="215" r="0.9" opacity="0.48"/><circle cx="106.2" cy="12" r="1" opacity="0.89"/><circle cx="182.8" cy="103.3" r="0.6" opacity="0.79"/><circle cx="74.1" cy="206.8" r="1.3" opacity="0.51"/><circle cx="314.7" cy="193.3" r="1.3" opacity="0.47"/><circle cx="270.2" cy="115.7" r="0.5" opacity="0.31"/><circle cx="311.4" cy="222.8" r="0.9" opacity="0.79"/><circle cx="145.4" cy="5.7" r="0.5" opacity="0.69"/><circle cx="250.6" cy="48.6" r="0.9" opacity="0.71"/><circle cx="15.5" cy="282.7" r="0.7" opacity="0.79"/><circle cx="378.2" cy="153.4" r="1.3" opacity="0.69"/><circle cx="385.1" cy="139.9" r="0.7" opacity="0.28"/><circle cx="28.6" cy="257.7" r="1" opacity="0.55"/><circle cx="186.4" cy="113.5" r="0.6" opacity="0.61"/><circle cx="139.6" cy="243.9" r="1" opacity="0.32"/><circle cx="208.9" cy="47.4" r="0.8" opacity="0.74"/><circle cx="114" cy="148.8" r="1.4" opacity="0.39"/><circle cx="294.6" cy="155.8" r="0.7" opacity="0.49"/><circle cx="263.1" cy="285.9" r="0.8" opacity="0.9"/><circle cx="36.2" cy="101" r="0.4" opacity="0.59"/><circle cx="241.1" cy="104.3" r="1" opacity="0.59"/><circle cx="62.6" cy="97.1" r="0.8" opacity="0.9"/><circle cx="178.5" cy="214.7" r="1.3" opacity="0.85"/><circle cx="192.7" cy="125.8" r="0.9" opacity="0.54"/><circle cx="223.3" cy="311.8" r="1.2" opacity="0.51"/><circle cx="240.2" cy="128.5" r="0.6" opacity="0.9"/><circle cx="311.6" cy="75.5" r="1.1" opacity="0.32"/><circle cx="350.5" cy="190.2" r="0.7" opacity="0.56"/><circle cx="356.6" cy="313.2" r="0.7" opacity="0.56"/><circle cx="273.1" cy="306.5" r="1.4" opacity="0.69"/><circle cx="254.5" cy="236.3" r="1.2" opacity="0.42"/><circle cx="309" cy="139.9" r="0.4" opacity="0.49"/><circle cx="46.8" cy="233.8" r="1" opacity="0.51"/><circle cx="319.9" cy="34.4" r="0.4" opacity="0.56"/><circle cx="15.2" cy="128.9" r="1" opacity="0.53"/><circle cx="385.3" cy="304.2" r="1" opacity="0.84"/><circle cx="293.6" cy="255.9" r="1.2" opacity="0.66"/><circle cx="315.5" cy="257.3" r="0.8" opacity="0.66"/><circle cx="343.8" cy="177" r="0.5" opacity="0.88"/><circle cx="330.2" cy="48.2" r="1.1" opacity="0.87"/><circle cx="225.9" cy="209.4" r="0.7" opacity="0.79"/><circle cx="147.8" cy="167.2" r="0.6" opacity="0.35"/><circle cx="47.1" cy="250.9" r="1.4" opacity="0.55"/><circle cx="162.5" cy="80.1" r="0.4" opacity="0.54"/><circle cx="147.7" cy="23.9" r="1" opacity="0.57"/><circle cx="159.4" cy="78.6" r="0.7" opacity="0.7"/><circle cx="230" cy="26.4" r="1.3" opacity="0.56"/><circle cx="199.2" cy="64.5" r="0.7" opacity="0.74"/><circle cx="373.3" cy="82.7" r="0.6" opacity="0.79"/></g><g transform="translate(64 96) rotate(-26) scale(1.9)"><circle cx="-2" r="26" fill="url(#ihq-crw)"/><path d="M5.3 -8.5A10 10 0 1 0 5.3 8.5A8.5 8.5 0 1 1 5.3 -8.5Z" fill="url(#ihq-crg)"/><path d="M5.3 -8.5A10 10 0 1 0 5.3 8.5A8.5 8.5 0 1 1 5.3 -8.5Z" fill="none" stroke="#FFF6D0" stroke-width=".5" opacity=".7"/><circle cx="-6.2" cy="-1.5" r="1.2" fill="#E8A83A" opacity=".35"/><circle cx="-4.4" cy="4.2" r=".8" fill="#E8A83A" opacity=".3"/><circle cx="-7.2" cy="3" r=".6" fill="#E8A83A" opacity=".3"/></g><rect x="-10" y="390" width="410" height="40" fill="#E9E2D0"/><rect x="-10" y="390" width="410" height="2" fill="#C8B88E"/><path d="M-6.4 430V415.1A15.1 15.1 0 0 1 2.8 406A15.1 15.1 0 0 1 12 415.1V430Z" fill="url(#ihq-arlmd)"/><path d="M-6.4 430V415.1A15.1 15.1 0 0 1 2.8 406A15.1 15.1 0 0 1 12 415.1V430Z" fill="none" stroke="rgba(120,90,40,.35)" stroke-width="0.9"/><path d="M19.2 430V415.1A15.1 15.1 0 0 1 28.4 406A15.1 15.1 0 0 1 37.7 415.1V430Z" fill="url(#ihq-arlmd)"/><path d="M19.2 430V415.1A15.1 15.1 0 0 1 28.4 406A15.1 15.1 0 0 1 37.7 415.1V430Z" fill="none" stroke="rgba(120,90,40,.35)" stroke-width="0.9"/><path d="M44.8 430V415.1A15.1 15.1 0 0 1 54.1 406A15.1 15.1 0 0 1 63.3 415.1V430Z" fill="url(#ihq-arlmd)"/><path d="M44.8 430V415.1A15.1 15.1 0 0 1 54.1 406A15.1 15.1 0 0 1 63.3 415.1V430Z" fill="none" stroke="rgba(120,90,40,.35)" stroke-width="0.9"/><path d="M70.5 430V415.1A15.1 15.1 0 0 1 79.7 406A15.1 15.1 0 0 1 88.9 415.1V430Z" fill="url(#ihq-arlmd)"/><path d="M70.5 430V415.1A15.1 15.1 0 0 1 79.7 406A15.1 15.1 0 0 1 88.9 415.1V430Z" fill="none" stroke="rgba(120,90,40,.35)" stroke-width="0.9"/><path d="M96.1 430V415.1A15.1 15.1 0 0 1 105.3 406A15.1 15.1 0 0 1 114.5 415.1V430Z" fill="url(#ihq-arlmd)"/><path d="M96.1 430V415.1A15.1 15.1 0 0 1 105.3 406A15.1 15.1 0 0 1 114.5 415.1V430Z" fill="none" stroke="rgba(120,90,40,.35)" stroke-width="0.9"/><path d="M121.7 430V415.1A15.1 15.1 0 0 1 130.9 406A15.1 15.1 0 0 1 140.2 415.1V430Z" fill="url(#ihq-arlmd)"/><path d="M121.7 430V415.1A15.1 15.1 0 0 1 130.9 406A15.1 15.1 0 0 1 140.2 415.1V430Z" fill="none" stroke="rgba(120,90,40,.35)" stroke-width="0.9"/><path d="M147.3 430V415.1A15.1 15.1 0 0 1 156.6 406A15.1 15.1 0 0 1 165.8 415.1V430Z" fill="url(#ihq-arlmd)"/><path d="M147.3 430V415.1A15.1 15.1 0 0 1 156.6 406A15.1 15.1 0 0 1 165.8 415.1V430Z" fill="none" stroke="rgba(120,90,40,.35)" stroke-width="0.9"/><path d="M173 430V415.1A15.1 15.1 0 0 1 182.2 406A15.1 15.1 0 0 1 191.4 415.1V430Z" fill="url(#ihq-arlmd)"/><path d="M173 430V415.1A15.1 15.1 0 0 1 182.2 406A15.1 15.1 0 0 1 191.4 415.1V430Z" fill="none" stroke="rgba(120,90,40,.35)" stroke-width="0.9"/><path d="M198.6 430V415.1A15.1 15.1 0 0 1 207.8 406A15.1 15.1 0 0 1 217 415.1V430Z" fill="url(#ihq-arlmd)"/><path d="M198.6 430V415.1A15.1 15.1 0 0 1 207.8 406A15.1 15.1 0 0 1 217 415.1V430Z" fill="none" stroke="rgba(120,90,40,.35)" stroke-width="0.9"/><path d="M224.2 430V415.1A15.1 15.1 0 0 1 233.4 406A15.1 15.1 0 0 1 242.7 415.1V430Z" fill="url(#ihq-arlmd)"/><path d="M224.2 430V415.1A15.1 15.1 0 0 1 233.4 406A15.1 15.1 0 0 1 242.7 415.1V430Z" fill="none" stroke="rgba(120,90,40,.35)" stroke-width="0.9"/><path d="M249.8 430V415.1A15.1 15.1 0 0 1 259.1 406A15.1 15.1 0 0 1 268.3 415.1V430Z" fill="url(#ihq-arlmd)"/><path d="M249.8 430V415.1A15.1 15.1 0 0 1 259.1 406A15.1 15.1 0 0 1 268.3 415.1V430Z" fill="none" stroke="rgba(120,90,40,.35)" stroke-width="0.9"/><path d="M275.5 430V415.1A15.1 15.1 0 0 1 284.7 406A15.1 15.1 0 0 1 293.9 415.1V430Z" fill="url(#ihq-arlmd)"/><path d="M275.5 430V415.1A15.1 15.1 0 0 1 284.7 406A15.1 15.1 0 0 1 293.9 415.1V430Z" fill="none" stroke="rgba(120,90,40,.35)" stroke-width="0.9"/><path d="M301.1 430V415.1A15.1 15.1 0 0 1 310.3 406A15.1 15.1 0 0 1 319.5 415.1V430Z" fill="url(#ihq-arlmd)"/><path d="M301.1 430V415.1A15.1 15.1 0 0 1 310.3 406A15.1 15.1 0 0 1 319.5 415.1V430Z" fill="none" stroke="rgba(120,90,40,.35)" stroke-width="0.9"/><path d="M326.7 430V415.1A15.1 15.1 0 0 1 335.9 406A15.1 15.1 0 0 1 345.2 415.1V430Z" fill="url(#ihq-arlmd)"/><path d="M326.7 430V415.1A15.1 15.1 0 0 1 335.9 406A15.1 15.1 0 0 1 345.2 415.1V430Z" fill="none" stroke="rgba(120,90,40,.35)" stroke-width="0.9"/><path d="M352.3 430V415.1A15.1 15.1 0 0 1 361.6 406A15.1 15.1 0 0 1 370.8 415.1V430Z" fill="url(#ihq-arlmd)"/><path d="M352.3 430V415.1A15.1 15.1 0 0 1 361.6 406A15.1 15.1 0 0 1 370.8 415.1V430Z" fill="none" stroke="rgba(120,90,40,.35)" stroke-width="0.9"/><path d="M378 430V415.1A15.1 15.1 0 0 1 387.2 406A15.1 15.1 0 0 1 396.4 415.1V430Z" fill="url(#ihq-arlmd)"/><path d="M378 430V415.1A15.1 15.1 0 0 1 387.2 406A15.1 15.1 0 0 1 396.4 415.1V430Z" fill="none" stroke="rgba(120,90,40,.35)" stroke-width="0.9"/><rect x="56" y="387" width="28" height="4" fill="#DCD4C0"/><path d="M56 387C56 380.3 62.2 375 70 375C77.8 375 84 380.3 84 387Z" fill="url(#ihq-sdm)"/><g transform="translate(70 376) scale(0.45)"><path d="M-.6 0V-14h1.2V0Z" fill="url(#ihq-gdvgold)"/><circle cy="-3" r="2.1" fill="url(#ihq-gdvgold)"/><circle cy="-7.6" r="1.7" fill="url(#ihq-gdvgold)"/><ellipse cy="-11" rx="1.2" ry="1.5" fill="url(#ihq-gdvgold)"/><path d="M-3.6 -17.4A4 4 0 0 0 3.6 -17.4A3.2 3.2 0 0 1 -3.6 -17.4Z" fill="url(#ihq-gdvgold)" transform="translate(0 -1.2)"/></g><rect x="90" y="387" width="28" height="4" fill="#DCD4C0"/><path d="M90 387C90 380.3 96.2 375 104 375C111.8 375 118 380.3 118 387Z" fill="url(#ihq-sdm)"/><g transform="translate(104 376) scale(0.45)"><path d="M-.6 0V-14h1.2V0Z" fill="url(#ihq-gdvgold)"/><circle cy="-3" r="2.1" fill="url(#ihq-gdvgold)"/><circle cy="-7.6" r="1.7" fill="url(#ihq-gdvgold)"/><ellipse cy="-11" rx="1.2" ry="1.5" fill="url(#ihq-gdvgold)"/><path d="M-3.6 -17.4A4 4 0 0 0 3.6 -17.4A3.2 3.2 0 0 1 -3.6 -17.4Z" fill="url(#ihq-gdvgold)" transform="translate(0 -1.2)"/></g><rect x="287" y="387" width="26" height="4" fill="#DCD4C0"/><path d="M287 387C287 380.8 292.7 376 300 376C307.3 376 313 380.8 313 387Z" fill="url(#ihq-sdm)"/><g transform="translate(300 377) scale(0.45)"><path d="M-.6 0V-14h1.2V0Z" fill="url(#ihq-gdvgold)"/><circle cy="-3" r="2.1" fill="url(#ihq-gdvgold)"/><circle cy="-7.6" r="1.7" fill="url(#ihq-gdvgold)"/><ellipse cy="-11" rx="1.2" ry="1.5" fill="url(#ihq-gdvgold)"/><path d="M-3.6 -17.4A4 4 0 0 0 3.6 -17.4A3.2 3.2 0 0 1 -3.6 -17.4Z" fill="url(#ihq-gdvgold)" transform="translate(0 -1.2)"/></g><rect x="148" y="372" width="58" height="22" fill="#E3DAC4"/><rect x="148" y="372" width="58" height="3" fill="#C8B88E"/><rect x="156" y="360" width="42" height="13" fill="url(#ihq-gdb)"/><rect x="160" y="363" width="3" height="7" rx="1.5" fill="#E9F5E6" opacity=".7"/><rect x="168" y="363" width="3" height="7" rx="1.5" fill="#E9F5E6" opacity=".7"/><rect x="176" y="363" width="3" height="7" rx="1.5" fill="#E9F5E6" opacity=".7"/><rect x="184" y="363" width="3" height="7" rx="1.5" fill="#E9F5E6" opacity=".7"/><rect x="192" y="363" width="3" height="7" rx="1.5" fill="#E9F5E6" opacity=".7"/><path d="M154 361C152.6 335 162.7 314.5 177 311C191.3 314.5 201.4 335 200 361Z" fill="url(#ihq-gdm)"/><path d="M160.6 361Q163.5 325 177 311.5" fill="none" stroke="#0F4A2C" stroke-width=".7" opacity="0.45"/><path d="M166.1 361Q168 325 177 311.5" fill="none" stroke="#0F4A2C" stroke-width=".7" opacity="0.45"/><path d="M171.5 361Q172.5 325 177 311.5" fill="none" stroke="#0F4A2C" stroke-width=".7" opacity="0.45"/><path d="M177 361Q177 325 177 311.5" fill="none" stroke="#0F4A2C" stroke-width=".7" opacity="0.45"/><path d="M182.5 361Q181.5 325 177 311.5" fill="none" stroke="#0F4A2C" stroke-width=".7" opacity="0.45"/><path d="M187.9 361Q186 325 177 311.5" fill="none" stroke="#0F4A2C" stroke-width=".7" opacity="0.45"/><path d="M193.4 361Q190.5 325 177 311.5" fill="none" stroke="#0F4A2C" stroke-width=".7" opacity="0.45"/><path d="M166 330Q170 318 177 312" fill="none" stroke="#DFF7E6" stroke-width="1.6" opacity=".35" stroke-linecap="round"/><g transform="translate(177 312) scale(0.8)"><path d="M-.6 0V-14h1.2V0Z" fill="url(#ihq-gdvgold)"/><circle cy="-3" r="2.1" fill="url(#ihq-gdvgold)"/><circle cy="-7.6" r="1.7" fill="url(#ihq-gdvgold)"/><ellipse cy="-11" rx="1.2" ry="1.5" fill="url(#ihq-gdvgold)"/><path d="M-3.6 -17.4A4 4 0 0 0 3.6 -17.4A3.2 3.2 0 0 1 -3.6 -17.4Z" fill="url(#ihq-gdvgold)" transform="translate(0 -1.2)"/></g><g><path d="M115.8 424V360.6H128.2V424Z" fill="#EDE6D4"/><path d="M116.7 360.6V314.9H127.3V360.6Z" fill="#EDE6D4"/><path d="M117.7 314.9V283.2H126.3V314.9Z" fill="#EDE6D4"/><path d="M113 360.6h18l-2.2 5h-13.6Z" fill="#EDE6D4"/><path d="M113 360.6h18" stroke="rgba(120,90,40,.35)" stroke-width=".8"/><path d="M113.5 359h17" stroke="#B8923E" stroke-width=".7" stroke-dasharray="1 1.4" opacity=".75"/><path d="M114.1 314.9h15.8l-1.9 4.4h-12Z" fill="#EDE6D4"/><path d="M114.1 314.9h15.8" stroke="rgba(120,90,40,.35)" stroke-width=".8"/><path d="M114.6 313.3h14.8" stroke="#B8923E" stroke-width=".7" stroke-dasharray="1 1.4" opacity=".75"/><path d="M115.1 283.2h13.7l-1.6 3.8h-10.4Z" fill="#EDE6D4"/><path d="M115.1 283.2h13.7" stroke="rgba(120,90,40,.35)" stroke-width=".8"/><path d="M115.6 281.6h12.7" stroke="#B8923E" stroke-width=".7" stroke-dasharray="1 1.4" opacity=".75"/><path d="M117.8 283.2V269.1H126.2V283.2Z" fill="#FFE3A6" opacity=".55"/><path d="M116.7 269.1C116.7 258.2 120.2 254 122 251.5C123.8 254 127.3 258.2 127.3 269.1Z" fill="#2E9A62"/><rect x="120.7" y="406.4" width="2.5" height="3.9" rx="1.3" fill="#FFE3A6" opacity=".8"/><rect x="120.7" y="397.6" width="2.5" height="3.9" rx="1.3" fill="#FFE3A6" opacity=".8"/><rect x="120.7" y="388.8" width="2.5" height="3.9" rx="1.3" fill="#FFE3A6" opacity=".8"/><rect x="120.7" y="380" width="2.5" height="3.9" rx="1.3" fill="#FFE3A6" opacity=".8"/><rect x="120.7" y="346.6" width="2.5" height="3.9" rx="1.3" fill="#FFE3A6" opacity=".8"/><rect x="120.7" y="337.8" width="2.5" height="3.9" rx="1.3" fill="#FFE3A6" opacity=".8"/><g transform="translate(122 252.5) scale(0.9)"><path d="M-.6 0V-14h1.2V0Z" fill="url(#ihq-gdvgold)"/><circle cy="-3" r="2.1" fill="url(#ihq-gdvgold)"/><circle cy="-7.6" r="1.7" fill="url(#ihq-gdvgold)"/><ellipse cy="-11" rx="1.2" ry="1.5" fill="url(#ihq-gdvgold)"/><path d="M-3.6 -17.4A4 4 0 0 0 3.6 -17.4A3.2 3.2 0 0 1 -3.6 -17.4Z" fill="url(#ihq-gdvgold)" transform="translate(0 -1.2)"/></g></g><g><path d="M231.1 424V353.4H244.9V424Z" fill="#EDE6D4"/><path d="M232.1 353.4V302.5H243.9V353.4Z" fill="#EDE6D4"/><path d="M233.2 302.5V267.2H242.8V302.5Z" fill="#EDE6D4"/><path d="M228 353.4h20l-2.4 5.6h-15.2Z" fill="#EDE6D4"/><path d="M228 353.4h20" stroke="rgba(120,90,40,.35)" stroke-width=".8"/><path d="M228.5 351.8h19" stroke="#B8923E" stroke-width=".7" stroke-dasharray="1 1.4" opacity=".75"/><path d="M229.2 302.5h17.6l-2.1 4.9h-13.4Z" fill="#EDE6D4"/><path d="M229.2 302.5h17.6" stroke="rgba(120,90,40,.35)" stroke-width=".8"/><path d="M229.7 300.9h16.6" stroke="#B8923E" stroke-width=".7" stroke-dasharray="1 1.4" opacity=".75"/><path d="M230.4 267.2h15.3l-1.8 4.3h-11.6Z" fill="#EDE6D4"/><path d="M230.4 267.2h15.3" stroke="rgba(120,90,40,.35)" stroke-width=".8"/><path d="M230.9 265.6h14.3" stroke="#B8923E" stroke-width=".7" stroke-dasharray="1 1.4" opacity=".75"/><path d="M233.3 267.2V251.5H242.7V267.2Z" fill="#FFE3A6" opacity=".55"/><path d="M232.1 251.5C232.1 239.4 236 234.7 238 231.9C240 234.7 243.9 239.4 243.9 251.5Z" fill="#2E9A62"/><rect x="236.6" y="404.4" width="2.8" height="4.3" rx="1.4" fill="#FFE3A6" opacity=".8"/><rect x="236.6" y="394.6" width="2.8" height="4.3" rx="1.4" fill="#FFE3A6" opacity=".8"/><rect x="236.6" y="384.8" width="2.8" height="4.3" rx="1.4" fill="#FFE3A6" opacity=".8"/><rect x="236.6" y="375" width="2.8" height="4.3" rx="1.4" fill="#FFE3A6" opacity=".8"/><rect x="236.6" y="337.8" width="2.8" height="4.3" rx="1.4" fill="#FFE3A6" opacity=".8"/><rect x="236.6" y="328" width="2.8" height="4.3" rx="1.4" fill="#FFE3A6" opacity=".8"/><g transform="translate(238 232.9) scale(1)"><path d="M-.6 0V-14h1.2V0Z" fill="url(#ihq-gdvgold)"/><circle cy="-3" r="2.1" fill="url(#ihq-gdvgold)"/><circle cy="-7.6" r="1.7" fill="url(#ihq-gdvgold)"/><ellipse cy="-11" rx="1.2" ry="1.5" fill="url(#ihq-gdvgold)"/><path d="M-3.6 -17.4A4 4 0 0 0 3.6 -17.4A3.2 3.2 0 0 1 -3.6 -17.4Z" fill="url(#ihq-gdvgold)" transform="translate(0 -1.2)"/></g></g><g><path d="M332.7 424V370H343.3V424Z" fill="#EDE6D4"/><path d="M333.5 370V331H342.5V370Z" fill="#EDE6D4"/><path d="M334.3 331V304H341.7V331Z" fill="#EDE6D4"/><path d="M330.4 370h15.3l-1.8 4.3h-11.6Z" fill="#EDE6D4"/><path d="M330.4 370h15.3" stroke="rgba(120,90,40,.35)" stroke-width=".8"/><path d="M330.9 368.4h14.3" stroke="#B8923E" stroke-width=".7" stroke-dasharray="1 1.4" opacity=".75"/><path d="M331.3 331h13.5l-1.6 3.8h-10.3Z" fill="#EDE6D4"/><path d="M331.3 331h13.5" stroke="rgba(120,90,40,.35)" stroke-width=".8"/><path d="M331.8 329.4h12.5" stroke="#B8923E" stroke-width=".7" stroke-dasharray="1 1.4" opacity=".75"/><path d="M332.2 304h11.7l-1.4 3.3h-8.9Z" fill="#EDE6D4"/><path d="M332.2 304h11.7" stroke="rgba(120,90,40,.35)" stroke-width=".8"/><path d="M332.7 302.4h10.7" stroke="#B8923E" stroke-width=".7" stroke-dasharray="1 1.4" opacity=".75"/><path d="M334.4 304V292H341.6V304Z" fill="#FFE3A6" opacity=".55"/><path d="M333.5 292C333.5 282.7 336.5 279.1 338 277C339.5 279.1 342.5 282.7 342.5 292Z" fill="#2E9A62"/><rect x="336.9" y="409" width="2.2" height="3.3" rx="1.1" fill="#FFE3A6" opacity=".8"/><rect x="336.9" y="401.5" width="2.2" height="3.3" rx="1.1" fill="#FFE3A6" opacity=".8"/><rect x="336.9" y="394" width="2.2" height="3.3" rx="1.1" fill="#FFE3A6" opacity=".8"/><rect x="336.9" y="386.5" width="2.2" height="3.3" rx="1.1" fill="#FFE3A6" opacity=".8"/><rect x="336.9" y="358" width="2.2" height="3.3" rx="1.1" fill="#FFE3A6" opacity=".8"/><rect x="336.9" y="350.5" width="2.2" height="3.3" rx="1.1" fill="#FFE3A6" opacity=".8"/><g transform="translate(338 278) scale(0.77)"><path d="M-.6 0V-14h1.2V0Z" fill="url(#ihq-gdvgold)"/><circle cy="-3" r="2.1" fill="url(#ihq-gdvgold)"/><circle cy="-7.6" r="1.7" fill="url(#ihq-gdvgold)"/><ellipse cy="-11" rx="1.2" ry="1.5" fill="url(#ihq-gdvgold)"/><path d="M-3.6 -17.4A4 4 0 0 0 3.6 -17.4A3.2 3.2 0 0 1 -3.6 -17.4Z" fill="url(#ihq-gdvgold)" transform="translate(0 -1.2)"/></g></g><rect x="-10" y="430" width="410" height="70" fill="url(#ihq-mdf)"/><path d="M-10 430H400" stroke="#BFB59E" stroke-width="1"/><path d="M-20 492L6 432" stroke="#D8D0BE" stroke-width=".8" opacity=".6"/><path d="M28 492L54 432" stroke="#D8D0BE" stroke-width=".8" opacity=".6"/><path d="M76 492L102 432" stroke="#D8D0BE" stroke-width=".8" opacity=".6"/><path d="M124 492L150 432" stroke="#D8D0BE" stroke-width=".8" opacity=".6"/><path d="M172 492L198 432" stroke="#D8D0BE" stroke-width=".8" opacity=".6"/><path d="M220 492L246 432" stroke="#D8D0BE" stroke-width=".8" opacity=".6"/><path d="M268 492L294 432" stroke="#D8D0BE" stroke-width=".8" opacity=".6"/><path d="M316 492L342 432" stroke="#D8D0BE" stroke-width=".8" opacity=".6"/><path d="M364 492L390 432" stroke="#D8D0BE" stroke-width=".8" opacity=".6"/><path d="M11.4 446Q16.4 400 20.8 354L23.2 354Q19.4 400 16.6 446Z" fill="#1C3A2A"/><path d="M22 354Q1.8 343 -16.6 354.9Q3.6 350.3 22 356Z" fill="#1C3A2A"/><path d="M22 354Q4.8 344.6 -10.8 364.1Q6.4 350.3 22 356Z" fill="#1C3A2A"/><path d="M22 354Q13.5 346.3 5.8 368.3Q14.3 350.3 22 356Z" fill="#1C3A2A"/><path d="M22 354Q42.2 343 60.6 354Q40.4 350.3 22 356Z" fill="#1C3A2A"/><path d="M22 354Q40.2 344.1 56.8 363.6Q38.6 350.3 22 356Z" fill="#1C3A2A"/><path d="M22 354Q29.8 346.3 36.9 368.9Q29.1 350.3 22 356Z" fill="#1C3A2A"/><path d="M22 354Q22 347.9 22 368.7Q22 350.3 22 356Z" fill="#1C3A2A"/><path d="M373.4 446Q373.6 403 366.8 360L369.2 360Q376.6 403 378.6 446Z" fill="#1C3A2A"/><path d="M368 360Q349.1 349.7 331.9 360.9Q350.8 356.6 368 362Z" fill="#1C3A2A"/><path d="M368 360Q351.9 351.2 337.3 369.4Q353.4 356.6 368 362Z" fill="#1C3A2A"/><path d="M368 360Q360.1 352.8 352.8 373.3Q360.8 356.6 368 362Z" fill="#1C3A2A"/><path d="M368 360Q386.9 349.7 404.1 360Q385.2 356.6 368 362Z" fill="#1C3A2A"/><path d="M368 360Q385 350.7 400.5 368.9Q383.5 356.6 368 362Z" fill="#1C3A2A"/><path d="M368 360Q375.3 352.8 381.9 373.9Q374.6 356.6 368 362Z" fill="#1C3A2A"/><path d="M368 360Q368 354.3 368 373.8Q368 356.6 368 362Z" fill="#1C3A2A"/><rect x="62.8" y="438.8" width="2.4" height="31.2" fill="#E9E5DA"/><ellipse cx="64" cy="446.8" rx="28" ry="8.8" fill="url(#ihq-glumFFF1C8)"/><path d="M24 435.8Q44 427.8 64 434.8Q84 427.8 104 435.8L100 440.8Q84 435.3 64 441.8Q44 435.3 28 440.8Z" fill="url(#ihq-umg)"/><path d="M64 440.8L28.8 438.8M64 440.8L99.2 438.8M64 440.8L46 434.8M64 440.8L82 434.8" stroke="#BDB6A6" stroke-width=".5"/><rect x="148.8" y="450.1" width="2.4" height="35.9" fill="#E9E5DA"/><ellipse cx="150" cy="458.1" rx="32.2" ry="10.1" fill="url(#ihq-glumFFF1C8)"/><path d="M104 447.1Q127 439.1 150 446.1Q173 439.1 196 447.1L191.4 452.1Q173 446.6 150 453.1Q127 446.6 108.6 452.1Z" fill="url(#ihq-umg)"/><path d="M150 452.1L109.5 450.1M150 452.1L190.5 450.1M150 452.1L129.3 446.1M150 452.1L170.7 446.1" stroke="#BDB6A6" stroke-width=".5"/><rect x="238.8" y="450.1" width="2.4" height="35.9" fill="#E9E5DA"/><ellipse cx="240" cy="458.1" rx="32.2" ry="10.1" fill="url(#ihq-glumFFF1C8)"/><path d="M194 447.1Q217 439.1 240 446.1Q263 439.1 286 447.1L281.4 452.1Q263 446.6 240 453.1Q217 446.6 198.6 452.1Z" fill="url(#ihq-umg)"/><path d="M240 452.1L199.5 450.1M240 452.1L280.5 450.1M240 452.1L219.3 446.1M240 452.1L260.7 446.1" stroke="#BDB6A6" stroke-width=".5"/><rect x="324.8" y="438.8" width="2.4" height="31.2" fill="#E9E5DA"/><ellipse cx="326" cy="446.8" rx="28" ry="8.8" fill="url(#ihq-glumFFF1C8)"/><path d="M286 435.8Q306 427.8 326 434.8Q346 427.8 366 435.8L362 440.8Q346 435.3 326 441.8Q306 435.3 290 440.8Z" fill="url(#ihq-umg)"/><path d="M326 440.8L290.8 438.8M326 440.8L361.2 438.8M326 440.8L308 434.8M326 440.8L344 434.8" stroke="#BDB6A6" stroke-width=".5"/><g transform="translate(300 262) rotate(8) scale(0.38)"><ellipse cx="0" cy="2" rx="9" ry="4.6" fill="url(#ihq-dvb)"/><path d="M8 2L15 -1L14 4L16 6L8 5Z" fill="#E6EDF6"/><circle cx="-8" cy="0" r="3.6" fill="url(#ihq-dvb)"/><path d="M-11.4 -.2L-14 .8L-11.2 1.6Z" fill="#E7A24A"/><circle cx="-9" cy="-.8" r=".8" fill="#2A2A36"/><g class="wg dv"><path d="M-2 -1C-6 -12 -16 -18 -24 -16C-18 -12 -12 -6 -8 1Z" fill="url(#ihq-dvw)"/><path d="M2 -1C6 -12 16 -18 24 -16C18 -12 12 -6 8 1Z" fill="url(#ihq-dvw)"/></g></g><g transform="translate(268 244) rotate(-4) scale(0.3)"><ellipse cx="0" cy="2" rx="9" ry="4.6" fill="url(#ihq-dvb)"/><path d="M8 2L15 -1L14 4L16 6L8 5Z" fill="#E6EDF6"/><circle cx="-8" cy="0" r="3.6" fill="url(#ihq-dvb)"/><path d="M-11.4 -.2L-14 .8L-11.2 1.6Z" fill="#E7A24A"/><circle cx="-9" cy="-.8" r=".8" fill="#2A2A36"/><g class="wg dv"><path d="M-2 -1C-6 -12 -16 -18 -24 -16C-18 -12 -12 -6 -8 1Z" fill="url(#ihq-dvw)"/><path d="M2 -1C6 -12 16 -18 24 -16C18 -12 12 -6 8 1Z" fill="url(#ihq-dvw)"/></g></g></g></svg>